<?xml version="1.0" encoding="utf-8"?>
<svg xmlns="http://www.w3.org/2000/svg" xmlns:xlink="http://www.w3.org/1999/xlink" style="margin: auto; background: rgba(255, 255, 255, 0); display: block; shape-rendering: auto;" width="200px" height="200px" viewBox="0 0 100 100" preserveAspectRatio="xMidYMid">
<g transform="rotate(0 50 50)">
  <rect x="47" y="9.5" rx="0" ry="0" width="6" height="17" fill="#deb624">
    <animate attributeName="opacity" values="1;0" keyTimes="0;1" dur="1.0869565217391304s" begin="-1.0093167701863353s" repeatCount="indefinite"></animate>
  </rect>
</g><g transform="rotate(25.714285714285715 50 50)">
  <rect x="47" y="9.5" rx="0" ry="0" width="6" height="17" fill="#deb624">
    <animate attributeName="opacity" values="1;0" keyTimes="0;1" dur="1.0869565217391304s" begin="-0.9316770186335404s" repeatCount="indefinite"></animate>
  </rect>
</g><g transform="rotate(51.42857142857143 50 50)">
  <rect x="47" y="9.5" rx="0" ry="0" width="6" height="17" fill="#deb624">
    <animate attributeName="opacity" values="1;0" keyTimes="0;1" dur="1.0869565217391304s" begin="-0.8540372670807453s" repeatCount="indefinite"></animate>
  </rect>
</g><g transform="rotate(77.14285714285714 50 50)">
  <rect x="47" y="9.5" rx="0" ry="0" width="6" height="17" fill="#deb624">
    <animate attributeName="opacity" values="1;0" keyTimes="0;1" dur="1.0869565217391304s" begin="-0.7763975155279502s" repeatCount="indefinite"></animate>
  </rect>
</g><g transform="rotate(102.85714285714286 50 50)">
  <rect x="47" y="9.5" rx="0" ry="0" width="6" height="17" fill="#deb624">
    <animate attributeName="opacity" values="1;0" keyTimes="0;1" dur="1.0869565217391304s" begin="-0.6987577639751552s" repeatCount="indefinite"></animate>
  </rect>
</g><g transform="rotate(128.57142857142858 50 50)">
  <rect x="47" y="9.5" rx="0" ry="0" width="6" height="17" fill="#deb624">
    <animate attributeName="opacity" values="1;0" keyTimes="0;1" dur="1.0869565217391304s" begin="-0.6211180124223602s" repeatCount="indefinite"></animate>
  </rect>
</g><g transform="rotate(154.28571428571428 50 50)">
  <rect x="47" y="9.5" rx="0" ry="0" width="6" height="17" fill="#deb624">
    <animate attributeName="opacity" values="1;0" keyTimes="0;1" dur="1.0869565217391304s" begin="-0.5434782608695652s" repeatCount="indefinite"></animate>
  </rect>
</g><g transform="rotate(180 50 50)">
  <rect x="47" y="9.5" rx="0" ry="0" width="6" height="17" fill="#deb624">
    <animate attributeName="opacity" values="1;0" keyTimes="0;1" dur="1.0869565217391304s" begin="-0.4658385093167702s" repeatCount="indefinite"></animate>
  </rect>
</g><g transform="rotate(205.71428571428572 50 50)">
  <rect x="47" y="9.5" rx="0" ry="0" width="6" height="17" fill="#deb624">
    <animate attributeName="opacity" values="1;0" keyTimes="0;1" dur="1.0869565217391304s" begin="-0.3881987577639751s" repeatCount="indefinite"></animate>
  </rect>
</g><g transform="rotate(231.42857142857142 50 50)">
  <rect x="47" y="9.5" rx="0" ry="0" width="6" height="17" fill="#deb624">
    <animate attributeName="opacity" values="1;0" keyTimes="0;1" dur="1.0869565217391304s" begin="-0.3105590062111801s" repeatCount="indefinite"></animate>
  </rect>
</g><g transform="rotate(257.14285714285717 50 50)">
  <rect x="47" y="9.5" rx="0" ry="0" width="6" height="17" fill="#deb624">
    <animate attributeName="opacity" values="1;0" keyTimes="0;1" dur="1.0869565217391304s" begin="-0.2329192546583851s" repeatCount="indefinite"></animate>
  </rect>
</g><g transform="rotate(282.85714285714283 50 50)">
  <rect x="47" y="9.5" rx="0" ry="0" width="6" height="17" fill="#deb624">
    <animate attributeName="opacity" values="1;0" keyTimes="0;1" dur="1.0869565217391304s" begin="-0.15527950310559005s" repeatCount="indefinite"></animate>
  </rect>
</g><g transform="rotate(308.57142857142856 50 50)">
  <rect x="47" y="9.5" rx="0" ry="0" width="6" height="17" fill="#deb624">
    <animate attributeName="opacity" values="1;0" keyTimes="0;1" dur="1.0869565217391304s" begin="-0.07763975155279502s" repeatCount="indefinite"></animate>
  </rect>
</g><g transform="rotate(334.2857142857143 50 50)">
  <rect x="47" y="9.5" rx="0" ry="0" width="6" height="17" fill="#deb624">
    <animate attributeName="opacity" values="1;0" keyTimes="0;1" dur="1.0869565217391304s" begin="0s" repeatCount="indefinite"></animate>
  </rect>
</g>
<!-- [ldio] generated by https://loading.io/ --></svg>