<svg xmlns="http://www.w3.org/2000/svg" width="375" viewBox="0 0 375 375" height="375" version="1.0"><defs><clipPath id="a"><path d="M 68.226562 135.753906 L 191.976562 135.753906 L 191.976562 143.253906 L 68.226562 143.253906 Z M 68.226562 135.753906"/></clipPath><clipPath id="b"><path d="M 166 143 L 189 143 L 189 143.253906 L 166 143.253906 Z M 166 143"/></clipPath><clipPath id="c"><path d="M 166 142 L 189 142 L 189 143.253906 L 166 143.253906 Z M 166 142"/></clipPath><clipPath id="d"><path d="M 142 143 L 165 143 L 165 143.253906 L 142 143.253906 Z M 142 143"/></clipPath><clipPath id="e"><path d="M 142 142 L 165 142 L 165 143.253906 L 142 143.253906 Z M 142 142"/></clipPath><clipPath id="f"><path d="M 119 143 L 141 143 L 141 143.253906 L 119 143.253906 Z M 119 143"/></clipPath><clipPath id="g"><path d="M 119 142 L 141 142 L 141 143.253906 L 119 143.253906 Z M 119 142"/></clipPath><clipPath id="h"><path d="M 95 143 L 117 143 L 117 143.253906 L 95 143.253906 Z M 95 143"/></clipPath><clipPath id="i"><path d="M 95 142 L 117 142 L 117 143.253906 L 95 143.253906 Z M 95 142"/></clipPath><clipPath id="j"><path d="M 71 143 L 93 143 L 93 143.253906 L 71 143.253906 Z M 71 143"/></clipPath><clipPath id="k"><path d="M 71 142 L 94 142 L 94 143.253906 L 71 143.253906 Z M 71 142"/></clipPath><clipPath id="l"><path d="M 68.226562 105.246094 L 191.976562 105.246094 L 191.976562 112.746094 L 68.226562 112.746094 Z M 68.226562 105.246094"/></clipPath><clipPath id="m"><path d="M 166 112 L 189 112 L 189 112.746094 L 166 112.746094 Z M 166 112"/></clipPath><clipPath id="n"><path d="M 142 112 L 165 112 L 165 112.746094 L 142 112.746094 Z M 142 112"/></clipPath><clipPath id="o"><path d="M 119 112 L 141 112 L 141 112.746094 L 119 112.746094 Z M 119 112"/></clipPath><clipPath id="p"><path d="M 95 112 L 117 112 L 117 112.746094 L 95 112.746094 Z M 95 112"/></clipPath><clipPath id="q"><path d="M 71 112 L 93 112 L 93 112.746094 L 71 112.746094 Z M 71 112"/></clipPath><clipPath id="r"><path d="M 71 112 L 94 112 L 94 112.746094 L 71 112.746094 Z M 71 112"/></clipPath><clipPath id="s"><path d="M 291.085938 114.375 L 302.335938 114.375 L 302.335938 133.875 L 291.085938 133.875 Z M 291.085938 114.375"/></clipPath></defs><g clip-path="url(#a)"><path stroke-linecap="round" transform="matrix(0 .21666 -.21833 0 200.225 182.76)" stroke-linejoin="round" d="M -216.182314 38.351236 L -216.182314 604.059891 L -183.873411 604.059891 L -183.873411 594.935269 L -108.09533 594.935269 L -108.09533 604.059891 L -75.786427 604.059891 L -75.786427 38.351236 L -108.09533 38.351236 L -108.09533 47.440075 L -183.873411 47.440075 L -183.873411 38.351236 Z M -216.182314 38.351236" stroke="#000" stroke-width="1.094"/></g><g clip-path="url(#b)"><path fill="#FFF" d="M 188.15625 143.035156 L 188.15625 159.230469 L 166.765625 159.230469 L 166.765625 143.035156 Z M 188.15625 143.035156"/></g><g clip-path="url(#c)"><path stroke-linecap="round" transform="matrix(0 .21666 -.21833 0 233.998 159.96)" fill="none" stroke-linejoin="round" d="M -78.120589 209.965475 L -3.370191 209.965475 L -3.370191 307.938864 L -78.120589 307.938864 Z M -78.120589 209.965475" stroke="#000"/></g><g clip-path="url(#d)"><path fill="#FFF" d="M 164.367188 143.035156 L 164.367188 159.230469 L 142.972656 159.230469 L 142.972656 143.035156 Z M 164.367188 143.035156"/></g><g clip-path="url(#e)"><path stroke-linecap="round" transform="matrix(0 .21666 -.21833 0 233.998 159.96)" fill="none" stroke-linejoin="round" d="M -78.120589 318.924193 L -3.370191 318.924193 L -3.370191 416.915474 L -78.120589 416.915474 Z M -78.120589 318.924193" stroke="#000"/></g><g clip-path="url(#f)"><path fill="#FFF" d="M 140.574219 143.035156 L 140.574219 159.230469 L 119.179688 159.230469 L 119.179688 143.035156 Z M 140.574219 143.035156"/></g><g clip-path="url(#g)"><path stroke-linecap="round" transform="matrix(0 .21666 -.21833 0 233.998 159.96)" fill="none" stroke-linejoin="round" d="M -78.120589 427.900802 L -3.370191 427.900802 L -3.370191 525.892083 L -78.120589 525.892083 Z M -78.120589 427.900802" stroke="#000"/></g><g clip-path="url(#h)"><path fill="#FFF" d="M 116.78125 143.035156 L 116.78125 159.230469 L 95.390625 159.230469 L 95.390625 143.035156 Z M 116.78125 143.035156"/></g><g clip-path="url(#i)"><path stroke-linecap="round" transform="matrix(0 .21666 -.21833 0 233.998 159.96)" fill="none" stroke-linejoin="round" d="M -78.120589 536.877412 L -3.370191 536.877412 L -3.370191 634.850801 L -78.120589 634.850801 Z M -78.120589 536.877412" stroke="#000"/></g><g clip-path="url(#j)"><path fill="#FFF" d="M 92.992188 143.035156 L 92.992188 159.230469 L 71.597656 159.230469 L 71.597656 143.035156 Z M 92.992188 143.035156"/></g><g clip-path="url(#k)"><path stroke-linecap="round" transform="matrix(0 .21666 -.21833 0 233.998 159.96)" fill="none" stroke-linejoin="round" d="M -78.120589 645.83613 L -3.370191 645.83613 L -3.370191 743.827411 L -78.120589 743.827411 Z M -78.120589 645.83613" stroke="#000"/></g><path stroke-linecap="round" transform="matrix(0 .21666 -.21833 0 233.225 134.624)" fill="#FFF" stroke-linejoin="round" d="M 15.329931 196.585188 L 27.950596 196.585188 C 28.725866 196.585188 29.374928 196.853559 29.915814 197.390301 C 30.4567 197.944935 30.727143 198.589026 30.727143 199.358357 L 30.727143 205.924506 C 30.727143 206.693837 30.4567 207.337928 29.915814 207.892562 C 29.374928 208.429304 28.725866 208.697676 27.950596 208.697676 L 15.329931 208.697676 C 14.554661 208.697676 13.905599 208.429304 13.364713 207.892562 C 12.823827 207.337928 12.553385 206.693837 12.553385 205.924506 L 12.553385 199.358357 C 12.553385 198.589026 12.823827 197.944935 13.364713 197.390301 C 13.905599 196.853559 14.554661 196.585188 15.329931 196.585188" stroke="#000"/><path stroke-linecap="round" transform="matrix(0 .21666 -.21833 0 233.225 134.624)" fill="#FFF" stroke-linejoin="round" d="M 15.329931 215.907916 L 27.950596 215.907916 C 28.725866 215.907916 29.374928 216.176287 29.915814 216.730921 C 30.4567 217.267664 30.727143 217.929646 30.727143 218.681085 L 30.727143 225.247235 C 30.727143 226.016566 30.4567 226.678548 29.915814 227.21529 C 29.374928 227.752033 28.725866 228.038295 27.950596 228.038295 L 15.329931 228.038295 C 14.554661 228.038295 13.905599 227.752033 13.364713 227.21529 C 12.823827 226.678548 12.553385 226.016566 12.553385 225.247235 L 12.553385 218.681085 C 12.553385 217.929646 12.823827 217.267664 13.364713 216.730921 C 13.905599 216.176287 14.554661 215.907916 15.329931 215.907916" stroke="#000"/><path stroke-linecap="round" transform="matrix(0 .21666 -.21833 0 233.225 134.624)" fill="#FFF" stroke-linejoin="round" d="M 15.329931 235.248536 L 27.950596 235.248536 C 28.725866 235.248536 29.374928 235.516907 29.915814 236.071541 C 30.4567 236.608283 30.727143 237.252374 30.727143 238.021705 L 30.727143 244.587854 C 30.727143 245.357185 30.4567 246.019168 29.915814 246.55591 C 29.374928 247.092653 28.725866 247.378915 27.950596 247.378915 L 15.329931 247.378915 C 14.554661 247.378915 13.905599 247.092653 13.364713 246.55591 C 12.823827 246.019168 12.553385 245.357185 12.553385 244.587854 L 12.553385 238.021705 C 12.553385 237.252374 12.823827 236.608283 13.364713 236.071541 C 13.905599 235.516907 14.554661 235.248536 15.329931 235.248536" stroke="#000"/><path stroke-linecap="round" transform="matrix(0 .21666 -.21833 0 233.225 134.624)" fill="#FFF" stroke-linejoin="round" d="M 15.329931 254.589156 L 27.950596 254.589156 C 28.725866 254.589156 29.374928 254.857527 29.915814 255.412161 C 30.4567 255.948903 30.727143 256.592994 30.727143 257.362325 L 30.727143 263.928474 C 30.727143 264.697805 30.4567 265.359787 29.915814 265.89653 C 29.374928 266.433272 28.725866 266.719535 27.950596 266.719535 L 15.329931 266.719535 C 14.554661 266.719535 13.905599 266.433272 13.364713 265.89653 C 12.823827 265.359787 12.553385 264.697805 12.553385 263.928474 L 12.553385 257.362325 C 12.553385 256.592994 12.823827 255.948903 13.364713 255.412161 C 13.905599 254.857527 14.554661 254.589156 15.329931 254.589156" stroke="#000"/><path stroke-linecap="round" transform="matrix(0 .21666 -.21833 0 233.225 134.624)" fill="#FFF" stroke-linejoin="round" d="M 15.329931 273.929775 L 27.950596 273.929775 C 28.725866 273.929775 29.374928 274.198146 29.915814 274.734889 C 30.4567 275.289523 30.727143 275.933614 30.727143 276.702945 L 30.727143 283.269094 C 30.727143 284.038425 30.4567 284.700407 29.915814 285.23715 C 29.374928 285.773892 28.725866 286.060155 27.950596 286.060155 L 15.329931 286.060155 C 14.554661 286.060155 13.905599 285.773892 13.364713 285.23715 C 12.823827 284.700407 12.553385 284.038425 12.553385 283.269094 L 12.553385 276.702945 C 12.553385 275.933614 12.823827 275.289523 13.364713 274.734889 C 13.905599 274.198146 14.554661 273.929775 15.329931 273.929775" stroke="#000"/><path stroke-linecap="round" transform="matrix(0 .21666 -.21833 0 233.225 134.624)" fill="#FFF" stroke-linejoin="round" d="M 15.329931 293.252504 L 27.950596 293.252504 C 28.725866 293.252504 29.374928 293.538766 29.915814 294.075509 C 30.4567 294.612251 30.727143 295.274234 30.727143 296.043564 L 30.727143 302.609714 C 30.727143 303.379045 30.4567 304.023136 29.915814 304.559878 C 29.374928 305.114512 28.725866 305.382883 27.950596 305.382883 L 15.329931 305.382883 C 14.554661 305.382883 13.905599 305.114512 13.364713 304.559878 C 12.823827 304.023136 12.553385 303.379045 12.553385 302.609714 L 12.553385 296.043564 C 12.553385 295.274234 12.823827 294.612251 13.364713 294.075509 C 13.905599 293.538766 14.554661 293.252504 15.329931 293.252504" stroke="#000"/><path stroke-linecap="round" transform="matrix(0 .21666 -.21833 0 233.225 134.624)" fill="#FFF" stroke-linejoin="round" d="M 15.329931 312.593123 L 27.950596 312.593123 C 28.725866 312.593123 29.374928 312.879386 29.915814 313.416128 C 30.4567 313.952871 30.727143 314.614853 30.727143 315.384184 L 30.727143 321.950333 C 30.727143 322.719664 30.4567 323.363755 29.915814 323.900498 C 29.374928 324.455132 28.725866 324.723503 27.950596 324.723503 L 15.329931 324.723503 C 14.554661 324.723503 13.905599 324.455132 13.364713 323.900498 C 12.823827 323.363755 12.553385 322.719664 12.553385 321.950333 L 12.553385 315.384184 C 12.553385 314.614853 12.823827 313.952871 13.364713 313.416128 C 13.905599 312.879386 14.554661 312.593123 15.329931 312.593123" stroke="#000"/><path stroke-linecap="round" transform="matrix(0 .21666 -.21833 0 233.225 134.624)" fill="#FFF" stroke-linejoin="round" d="M 15.329931 331.933743 L 27.950596 331.933743 C 28.725866 331.933743 29.374928 332.220006 29.915814 332.756748 C 30.4567 333.293491 30.727143 333.955473 30.727143 334.724804 L 30.727143 341.290953 C 30.727143 342.042393 30.4567 342.704375 29.915814 343.241117 C 29.374928 343.795751 28.725866 344.064123 27.950596 344.064123 L 15.329931 344.064123 C 14.554661 344.064123 13.905599 343.795751 13.364713 343.241117 C 12.823827 342.704375 12.553385 342.042393 12.553385 341.290953 L 12.553385 334.724804 C 12.553385 333.955473 12.823827 333.293491 13.364713 332.756748 C 13.905599 332.220006 14.554661 331.933743 15.329931 331.933743" stroke="#000"/><path stroke-linecap="round" transform="matrix(0 .21666 -.21833 0 233.225 134.624)" fill="#FFF" stroke-linejoin="round" d="M 15.329931 351.274363 L 27.950596 351.274363 C 28.725866 351.274363 29.374928 351.542734 29.915814 352.097368 C 30.4567 352.63411 30.727143 353.296093 30.727143 354.065424 L 30.727143 360.631573 C 30.727143 361.383012 30.4567 362.044995 29.915814 362.581737 C 29.374928 363.136371 28.725866 363.404742 27.950596 363.404742 L 15.329931 363.404742 C 14.554661 363.404742 13.905599 363.136371 13.364713 362.581737 C 12.823827 362.044995 12.553385 361.383012 12.553385 360.631573 L 12.553385 354.065424 C 12.553385 353.296093 12.823827 352.63411 13.364713 352.097368 C 13.905599 351.542734 14.554661 351.274363 15.329931 351.274363" stroke="#000"/><path stroke-linecap="round" transform="matrix(0 .21666 -.21833 0 233.225 134.624)" fill="#FFF" stroke-linejoin="round" d="M 15.329931 370.614983 L 27.950596 370.614983 C 28.725866 370.614983 29.374928 370.883354 29.915814 371.420096 C 30.4567 371.97473 30.727143 372.618821 30.727143 373.388152 L 30.727143 379.954301 C 30.727143 380.723632 30.4567 381.367723 29.915814 381.922357 C 29.374928 382.459099 28.725866 382.727471 27.950596 382.727471 L 15.329931 382.727471 C 14.554661 382.727471 13.905599 382.459099 13.364713 381.922357 C 12.823827 381.367723 12.553385 380.723632 12.553385 379.954301 L 12.553385 373.388152 C 12.553385 372.618821 12.823827 371.97473 13.364713 371.420096 C 13.905599 370.883354 14.554661 370.614983 15.329931 370.614983" stroke="#000"/><path stroke-linecap="round" transform="matrix(0 .21666 -.21833 0 233.225 134.624)" fill="#FFF" stroke-linejoin="round" d="M 15.329931 389.955602 L 27.950596 389.955602 C 28.725866 389.955602 29.374928 390.223974 29.915814 390.760716 C 30.4567 391.297459 30.727143 391.959441 30.727143 392.728772 L 30.727143 399.294921 C 30.727143 400.064252 30.4567 400.708343 29.915814 401.262977 C 29.374928 401.799719 28.725866 402.06809 27.950596 402.06809 L 15.329931 402.06809 C 14.554661 402.06809 13.905599 401.799719 13.364713 401.262977 C 12.823827 400.708343 12.553385 400.064252 12.553385 399.294921 L 12.553385 392.728772 C 12.553385 391.959441 12.823827 391.297459 13.364713 390.760716 C 13.905599 390.223974 14.554661 389.955602 15.329931 389.955602" stroke="#000"/><path stroke-linecap="round" transform="matrix(0 .21666 -.21833 0 233.225 134.624)" fill="#FFF" stroke-linejoin="round" d="M 15.329931 409.296222 L 27.950596 409.296222 C 28.725866 409.296222 29.374928 409.564593 29.915814 410.101336 C 30.4567 410.638078 30.727143 411.300061 30.727143 412.069391 L 30.727143 418.635541 C 30.727143 419.404872 30.4567 420.048963 29.915814 420.603597 C 29.374928 421.140339 28.725866 421.40871 27.950596 421.40871 L 15.329931 421.40871 C 14.554661 421.40871 13.905599 421.140339 13.364713 420.603597 C 12.823827 420.048963 12.553385 419.404872 12.553385 418.635541 L 12.553385 412.069391 C 12.553385 411.300061 12.823827 410.638078 13.364713 410.101336 C 13.905599 409.564593 14.554661 409.296222 15.329931 409.296222" stroke="#000"/><path stroke-linecap="round" transform="matrix(0 .21666 -.21833 0 233.225 134.624)" fill="#FFF" stroke-linejoin="round" d="M 15.329931 428.61895 L 27.950596 428.61895 C 28.725866 428.61895 29.374928 428.887322 29.915814 429.441956 C 30.4567 429.978698 30.727143 430.622789 30.727143 431.39212 L 30.727143 437.958269 C 30.727143 438.7276 30.4567 439.389582 29.915814 439.926325 C 29.374928 440.463067 28.725866 440.74933 27.950596 440.74933 L 15.329931 440.74933 C 14.554661 440.74933 13.905599 440.463067 13.364713 439.926325 C 12.823827 439.389582 12.553385 438.7276 12.553385 437.958269 L 12.553385 431.39212 C 12.553385 430.622789 12.823827 429.978698 13.364713 429.441956 C 13.905599 428.887322 14.554661 428.61895 15.329931 428.61895" stroke="#000"/><path stroke-linecap="round" transform="matrix(0 .21666 -.21833 0 233.225 134.624)" fill="#FFF" stroke-linejoin="round" d="M 15.329931 447.95957 L 27.950596 447.95957 C 28.725866 447.95957 29.374928 448.227941 29.915814 448.764684 C 30.4567 449.319318 30.727143 449.963409 30.727143 450.73274 L 30.727143 457.298889 C 30.727143 458.06822 30.4567 458.730202 29.915814 459.266945 C 29.374928 459.803687 28.725866 460.08995 27.950596 460.08995 L 15.329931 460.08995 C 14.554661 460.08995 13.905599 459.803687 13.364713 459.266945 C 12.823827 458.730202 12.553385 458.06822 12.553385 457.298889 L 12.553385 450.73274 C 12.553385 449.963409 12.823827 449.319318 13.364713 448.764684 C 13.905599 448.227941 14.554661 447.95957 15.329931 447.95957" stroke="#000"/><path stroke-linecap="round" transform="matrix(0 .21666 -.21833 0 233.225 134.624)" fill="#FFF" stroke-linejoin="round" d="M 15.329931 467.30019 L 27.950596 467.30019 C 28.725866 467.30019 29.374928 467.568561 29.915814 468.105304 C 30.4567 468.659938 30.727143 469.304029 30.727143 470.073359 L 30.727143 476.639509 C 30.727143 477.40884 30.4567 478.070822 29.915814 478.607564 C 29.374928 479.144307 28.725866 479.430569 27.950596 479.430569 L 15.329931 479.430569 C 14.554661 479.430569 13.905599 479.144307 13.364713 478.607564 C 12.823827 478.070822 12.553385 477.40884 12.553385 476.639509 L 12.553385 470.073359 C 12.553385 469.304029 12.823827 468.659938 13.364713 468.105304 C 13.905599 467.568561 14.554661 467.30019 15.329931 467.30019" stroke="#000"/><path stroke-linecap="round" transform="matrix(0 .21666 -.21833 0 233.225 134.624)" fill="#FFF" stroke-linejoin="round" d="M 15.329931 486.64081 L 27.950596 486.64081 C 28.725866 486.64081 29.374928 486.909181 29.915814 487.445923 C 30.4567 488.000557 30.727143 488.644648 30.727143 489.413979 L 30.727143 495.980128 C 30.727143 496.749459 30.4567 497.411442 29.915814 497.948184 C 29.374928 498.484927 28.725866 498.753298 27.950596 498.753298 L 15.329931 498.753298 C 14.554661 498.753298 13.905599 498.484927 13.364713 497.948184 C 12.823827 497.411442 12.553385 496.749459 12.553385 495.980128 L 12.553385 489.413979 C 12.553385 488.644648 12.823827 488.000557 13.364713 487.445923 C 13.905599 486.909181 14.554661 486.64081 15.329931 486.64081" stroke="#000"/><path stroke-linecap="round" transform="matrix(0 .21666 -.21833 0 233.225 134.624)" fill="#FFF" stroke-linejoin="round" d="M 15.329931 505.963538 L 27.950596 505.963538 C 28.725866 505.963538 29.374928 506.249801 29.915814 506.786543 C 30.4567 507.323286 30.727143 507.985268 30.727143 508.754599 L 30.727143 515.320748 C 30.727143 516.072188 30.4567 516.73417 29.915814 517.270912 C 29.374928 517.825546 28.725866 518.093918 27.950596 518.093918 L 15.329931 518.093918 C 14.554661 518.093918 13.905599 517.825546 13.364713 517.270912 C 12.823827 516.73417 12.553385 516.072188 12.553385 515.320748 L 12.553385 508.754599 C 12.553385 507.985268 12.823827 507.323286 13.364713 506.786543 C 13.905599 506.249801 14.554661 505.963538 15.329931 505.963538" stroke="#000"/><path stroke-linecap="round" transform="matrix(0 .21666 -.21833 0 233.225 134.624)" fill="#FFF" stroke-linejoin="round" d="M 15.329931 525.304158 L 27.950596 525.304158 C 28.725866 525.304158 29.374928 525.572529 29.915814 526.127163 C 30.4567 526.663905 30.727143 527.325888 30.727143 528.095219 L 30.727143 534.661368 C 30.727143 535.412807 30.4567 536.07479 29.915814 536.611532 C 29.374928 537.166166 28.725866 537.434537 27.950596 537.434537 L 15.329931 537.434537 C 14.554661 537.434537 13.905599 537.166166 13.364713 536.611532 C 12.823827 536.07479 12.553385 535.412807 12.553385 534.661368 L 12.553385 528.095219 C 12.553385 527.325888 12.823827 526.663905 13.364713 526.127163 C 13.905599 525.572529 14.554661 525.304158 15.329931 525.304158" stroke="#000"/><path stroke-linecap="round" transform="matrix(0 .21666 -.21833 0 233.225 134.624)" fill="#FFF" stroke-linejoin="round" d="M 15.329931 544.644778 L 27.950596 544.644778 C 28.725866 544.644778 29.374928 544.913149 29.915814 545.467783 C 30.4567 546.004525 30.727143 546.666508 30.727143 547.435838 L 30.727143 554.001988 C 30.727143 554.753427 30.4567 555.41541 29.915814 555.952152 C 29.374928 556.506786 28.725866 556.775157 27.950596 556.775157 L 15.329931 556.775157 C 14.554661 556.775157 13.905599 556.506786 13.364713 555.952152 C 12.823827 555.41541 12.553385 554.753427 12.553385 554.001988 L 12.553385 547.435838 C 12.553385 546.666508 12.823827 546.004525 13.364713 545.467783 C 13.905599 544.913149 14.554661 544.644778 15.329931 544.644778" stroke="#000"/><path stroke-linecap="round" transform="matrix(0 .21666 -.21833 0 233.225 134.624)" fill="#FFF" stroke-linejoin="round" d="M 15.329931 563.985397 L 27.950596 563.985397 C 28.725866 563.985397 29.374928 564.253769 29.915814 564.790511 C 30.4567 565.327254 30.727143 565.989236 30.727143 566.758567 L 30.727143 573.324716 C 30.727143 574.094047 30.4567 574.738138 29.915814 575.292772 C 29.374928 575.829514 28.725866 576.097885 27.950596 576.097885 L 15.329931 576.097885 C 14.554661 576.097885 13.905599 575.829514 13.364713 575.292772 C 12.823827 574.738138 12.553385 574.094047 12.553385 573.324716 L 12.553385 566.758567 C 12.553385 565.989236 12.823827 565.327254 13.364713 564.790511 C 13.905599 564.253769 14.554661 563.985397 15.329931 563.985397" stroke="#000"/><path stroke-linecap="round" transform="matrix(0 .21666 -.21833 0 233.225 134.624)" fill="#FFF" stroke-linejoin="round" d="M 15.329931 583.326017 L 27.950596 583.326017 C 28.725866 583.326017 29.374928 583.594388 29.915814 584.131131 C 30.4567 584.667873 30.727143 585.329856 30.727143 586.099186 L 30.727143 592.665336 C 30.727143 593.434667 30.4567 594.078758 29.915814 594.633392 C 29.374928 595.170134 28.725866 595.438505 27.950596 595.438505 L 15.329931 595.438505 C 14.554661 595.438505 13.905599 595.170134 13.364713 594.633392 C 12.823827 594.078758 12.553385 593.434667 12.553385 592.665336 L 12.553385 586.099186 C 12.553385 585.329856 12.823827 584.667873 13.364713 584.131131 C 13.905599 583.594388 14.554661 583.326017 15.329931 583.326017" stroke="#000"/><path stroke-linecap="round" transform="matrix(0 .21666 -.21833 0 233.225 134.624)" fill="#FFF" stroke-linejoin="round" d="M 15.329931 602.666637 L 27.950596 602.666637 C 28.725866 602.666637 29.374928 602.935008 29.915814 603.471751 C 30.4567 604.008493 30.727143 604.670475 30.727143 605.439806 L 30.727143 612.005956 C 30.727143 612.775286 30.4567 613.419377 29.915814 613.974011 C 29.374928 614.510754 28.725866 614.779125 27.950596 614.779125 L 15.329931 614.779125 C 14.554661 614.779125 13.905599 614.510754 13.364713 613.974011 C 12.823827 613.419377 12.553385 612.775286 12.553385 612.005956 L 12.553385 605.439806 C 12.553385 604.670475 12.823827 604.008493 13.364713 603.471751 C 13.905599 602.935008 14.554661 602.666637 15.329931 602.666637" stroke="#000"/><path stroke-linecap="round" transform="matrix(0 .21666 -.21833 0 233.225 134.624)" fill="#FFF" stroke-linejoin="round" d="M 15.329931 622.007257 L 27.950596 622.007257 C 28.725866 622.007257 29.374928 622.275628 29.915814 622.81237 C 30.4567 623.349113 30.727143 624.011095 30.727143 624.780426 L 30.727143 631.346575 C 30.727143 632.115906 30.4567 632.759997 29.915814 633.314631 C 29.374928 633.851373 28.725866 634.119745 27.950596 634.119745 L 15.329931 634.119745 C 14.554661 634.119745 13.905599 633.851373 13.364713 633.314631 C 12.823827 632.759997 12.553385 632.115906 12.553385 631.346575 L 12.553385 624.780426 C 12.553385 624.011095 12.823827 623.349113 13.364713 622.81237 C 13.905599 622.275628 14.554661 622.007257 15.329931 622.007257" stroke="#000"/><path stroke-linecap="round" transform="matrix(0 .21666 -.21833 0 233.225 134.624)" fill="#FFF" stroke-linejoin="round" d="M 15.329931 641.329985 L 27.950596 641.329985 C 28.725866 641.329985 29.374928 641.598356 29.915814 642.135099 C 30.4567 642.689733 30.727143 643.333823 30.727143 644.103154 L 30.727143 650.669304 C 30.727143 651.438635 30.4567 652.100617 29.915814 652.637359 C 29.374928 653.174102 28.725866 653.460364 27.950596 653.460364 L 15.329931 653.460364 C 14.554661 653.460364 13.905599 653.174102 13.364713 652.637359 C 12.823827 652.100617 12.553385 651.438635 12.553385 650.669304 L 12.553385 644.103154 C 12.553385 643.333823 12.823827 642.689733 13.364713 642.135099 C 13.905599 641.598356 14.554661 641.329985 15.329931 641.329985" stroke="#000"/><path stroke-linecap="round" transform="matrix(0 .21666 -.21833 0 233.225 134.624)" fill="#FFF" stroke-linejoin="round" d="M 15.329931 660.670605 L 27.950596 660.670605 C 28.725866 660.670605 29.374928 660.938976 29.915814 661.475718 C 30.4567 662.030352 30.727143 662.674443 30.727143 663.443774 L 30.727143 670.009923 C 30.727143 670.779254 30.4567 671.441237 29.915814 671.977979 C 29.374928 672.514722 28.725866 672.783093 27.950596 672.783093 L 15.329931 672.783093 C 14.554661 672.783093 13.905599 672.514722 13.364713 671.977979 C 12.823827 671.441237 12.553385 670.779254 12.553385 670.009923 L 12.553385 663.443774 C 12.553385 662.674443 12.823827 662.030352 13.364713 661.475718 C 13.905599 660.938976 14.554661 660.670605 15.329931 660.670605" stroke="#000"/><path stroke-linecap="round" transform="matrix(0 .21666 -.21833 0 233.225 134.624)" fill="#FFF" stroke-linejoin="round" d="M 15.329931 680.011225 L 27.950596 680.011225 C 28.725866 680.011225 29.374928 680.279596 29.915814 680.816338 C 30.4567 681.370972 30.727143 682.015063 30.727143 682.784394 L 30.727143 689.350543 C 30.727143 690.119874 30.4567 690.781856 29.915814 691.318599 C 29.374928 691.855341 28.725866 692.123713 27.950596 692.123713 L 15.329931 692.123713 C 14.554661 692.123713 13.905599 691.855341 13.364713 691.318599 C 12.823827 690.781856 12.553385 690.119874 12.553385 689.350543 L 12.553385 682.784394 C 12.553385 682.015063 12.823827 681.370972 13.364713 680.816338 C 13.905599 680.279596 14.554661 680.011225 15.329931 680.011225" stroke="#000"/><path stroke-linecap="round" transform="matrix(0 .21666 -.21833 0 233.225 134.624)" fill="#FFF" stroke-linejoin="round" d="M 15.329931 699.333953 L 27.950596 699.333953 C 28.725866 699.333953 29.374928 699.602324 29.915814 700.156958 C 30.4567 700.6937 30.727143 701.355683 30.727143 702.125014 L 30.727143 708.691163 C 30.727143 709.442602 30.4567 710.104585 29.915814 710.641327 C 29.374928 711.195961 28.725866 711.464332 27.950596 711.464332 L 15.329931 711.464332 C 14.554661 711.464332 13.905599 711.195961 13.364713 710.641327 C 12.823827 710.104585 12.553385 709.442602 12.553385 708.691163 L 12.553385 702.125014 C 12.553385 701.355683 12.823827 700.6937 13.364713 700.156958 C 13.905599 699.620215 14.554661 699.333953 15.329931 699.333953" stroke="#000"/><path stroke-linecap="round" transform="matrix(0 .21666 -.21833 0 233.225 134.624)" fill="#FFF" stroke-linejoin="round" d="M 15.329931 718.674573 L 27.950596 718.674573 C 28.725866 718.674573 29.374928 718.942944 29.915814 719.497578 C 30.4567 720.03432 30.727143 720.696303 30.727143 721.465633 L 30.727143 728.031783 C 30.727143 728.783222 30.4567 729.445205 29.915814 729.981947 C 29.374928 730.536581 28.725866 730.804952 27.950596 730.804952 L 15.329931 730.804952 C 14.554661 730.804952 13.905599 730.536581 13.364713 729.981947 C 12.823827 729.445205 12.553385 728.783222 12.553385 728.031783 L 12.553385 721.465633 C 12.553385 720.696303 12.823827 720.03432 13.364713 719.497578 C 13.905599 718.942944 14.554661 718.674573 15.329931 718.674573" stroke="#000"/><path stroke-linecap="round" transform="matrix(0 .21666 -.21833 0 233.225 134.624)" fill="#FFF" stroke-linejoin="round" d="M 15.329931 738.015192 L 27.950596 738.015192 C 28.725866 738.015192 29.374928 738.283564 29.915814 738.838197 C 30.4567 739.37494 30.727143 740.036922 30.727143 740.806253 L 30.727143 747.372402 C 30.727143 748.123842 30.4567 748.785824 29.915814 749.322567 C 29.374928 749.877201 28.725866 750.145572 27.950596 750.145572 L 15.329931 750.145572 C 14.554661 750.145572 13.905599 749.877201 13.364713 749.322567 C 12.823827 748.785824 12.553385 748.123842 12.553385 747.372402 L 12.553385 740.806253 C 12.553385 740.036922 12.823827 739.37494 13.364713 738.838197 C 13.905599 738.283564 14.554661 738.015192 15.329931 738.015192" stroke="#000"/><g clip-path="url(#l)"><path stroke-linecap="round" transform="matrix(0 .21666 -.21833 0 200.225 152.253)" stroke-linejoin="round" d="M -216.186561 38.351236 L -216.186561 604.059891 L -183.877658 604.059891 L -183.877658 594.935269 L -108.099577 594.935269 L -108.099577 604.059891 L -75.790674 604.059891 L -75.790674 38.351236 L -108.099577 38.351236 L -108.099577 47.440075 L -183.877658 47.440075 L -183.877658 38.351236 Z M -216.186561 38.351236" stroke="#000" stroke-width="1.094"/></g><g clip-path="url(#m)"><path stroke-linecap="round" transform="matrix(0 .21666 -.21833 0 233.998 129.454)" fill="#FFF" stroke-linejoin="round" d="M -78.12477 209.965475 L -3.374372 209.965475 L -3.374372 307.938864 L -78.12477 307.938864 Z M -78.12477 209.965475" stroke="#000"/></g><g clip-path="url(#n)"><path stroke-linecap="round" transform="matrix(0 .21666 -.21833 0 233.998 129.454)" fill="#FFF" stroke-linejoin="round" d="M -78.12477 318.924193 L -3.374372 318.924193 L -3.374372 416.915474 L -78.12477 416.915474 Z M -78.12477 318.924193" stroke="#000"/></g><g clip-path="url(#o)"><path stroke-linecap="round" transform="matrix(0 .21666 -.21833 0 233.998 129.454)" fill="#FFF" stroke-linejoin="round" d="M -78.12477 427.900802 L -3.374372 427.900802 L -3.374372 525.892083 L -78.12477 525.892083 Z M -78.12477 427.900802" stroke="#000"/></g><g clip-path="url(#p)"><path stroke-linecap="round" transform="matrix(0 .21666 -.21833 0 233.998 129.454)" fill="#FFF" stroke-linejoin="round" d="M -78.12477 536.877412 L -3.374372 536.877412 L -3.374372 634.850801 L -78.12477 634.850801 Z M -78.12477 536.877412" stroke="#000"/></g><g clip-path="url(#q)"><path fill="#FFF" d="M 92.992188 112.527344 L 92.992188 128.722656 L 71.597656 128.722656 L 71.597656 112.527344 Z M 92.992188 112.527344"/></g><g clip-path="url(#r)"><path stroke-linecap="round" transform="matrix(0 .21666 -.21833 0 233.998 129.454)" fill="none" stroke-linejoin="round" d="M -78.12477 645.83613 L -3.374372 645.83613 L -3.374372 743.827411 L -78.12477 743.827411 Z M -78.12477 645.83613" stroke="#000"/></g><path stroke-linecap="round" transform="matrix(0 .21666 -.21833 0 233.225 104.117)" fill="#FFF" stroke-linejoin="round" d="M 15.325717 196.585188 L 27.964412 196.585188 C 28.721652 196.585188 29.370715 196.853559 29.92963 197.390301 C 30.470516 197.944935 30.740959 198.589026 30.740959 199.358357 L 30.740959 205.924506 C 30.740959 206.693837 30.470516 207.337928 29.92963 207.892562 C 29.370715 208.429304 28.721652 208.697676 27.964412 208.697676 L 15.325717 208.697676 C 14.568477 208.697676 13.901385 208.429304 13.360499 207.892562 C 12.819614 207.337928 12.549171 206.693837 12.549171 205.924506 L 12.549171 199.358357 C 12.549171 198.589026 12.819614 197.944935 13.360499 197.390301 C 13.901385 196.853559 14.568477 196.585188 15.325717 196.585188" stroke="#000"/><path stroke-linecap="round" transform="matrix(0 .21666 -.21833 0 233.225 104.117)" fill="#FFF" stroke-linejoin="round" d="M 15.325717 215.907916 L 27.964412 215.907916 C 28.721652 215.907916 29.370715 216.176287 29.92963 216.730921 C 30.470516 217.267664 30.740959 217.929646 30.740959 218.681085 L 30.740959 225.247235 C 30.740959 226.016566 30.470516 226.678548 29.92963 227.21529 C 29.370715 227.752033 28.721652 228.038295 27.964412 228.038295 L 15.325717 228.038295 C 14.568477 228.038295 13.901385 227.752033 13.360499 227.21529 C 12.819614 226.678548 12.549171 226.016566 12.549171 225.247235 L 12.549171 218.681085 C 12.549171 217.929646 12.819614 217.267664 13.360499 216.730921 C 13.901385 216.176287 14.568477 215.907916 15.325717 215.907916" stroke="#000"/><path stroke-linecap="round" transform="matrix(0 .21666 -.21833 0 233.225 104.117)" fill="#FFF" stroke-linejoin="round" d="M 15.325717 235.248536 L 27.964412 235.248536 C 28.721652 235.248536 29.370715 235.516907 29.92963 236.071541 C 30.470516 236.608283 30.740959 237.252374 30.740959 238.021705 L 30.740959 244.587854 C 30.740959 245.357185 30.470516 246.019168 29.92963 246.55591 C 29.370715 247.092653 28.721652 247.378915 27.964412 247.378915 L 15.325717 247.378915 C 14.568477 247.378915 13.901385 247.092653 13.360499 246.55591 C 12.819614 246.019168 12.549171 245.357185 12.549171 244.587854 L 12.549171 238.021705 C 12.549171 237.252374 12.819614 236.608283 13.360499 236.071541 C 13.901385 235.516907 14.568477 235.248536 15.325717 235.248536" stroke="#000"/><path stroke-linecap="round" transform="matrix(0 .21666 -.21833 0 233.225 104.117)" fill="#FFF" stroke-linejoin="round" d="M 15.325717 254.589156 L 27.964412 254.589156 C 28.721652 254.589156 29.370715 254.857527 29.92963 255.412161 C 30.470516 255.948903 30.740959 256.592994 30.740959 257.362325 L 30.740959 263.928474 C 30.740959 264.697805 30.470516 265.359787 29.92963 265.89653 C 29.370715 266.433272 28.721652 266.719535 27.964412 266.719535 L 15.325717 266.719535 C 14.568477 266.719535 13.901385 266.433272 13.360499 265.89653 C 12.819614 265.359787 12.549171 264.697805 12.549171 263.928474 L 12.549171 257.362325 C 12.549171 256.592994 12.819614 255.948903 13.360499 255.412161 C 13.901385 254.857527 14.568477 254.589156 15.325717 254.589156" stroke="#000"/><path stroke-linecap="round" transform="matrix(0 .21666 -.21833 0 233.225 104.117)" fill="#FFF" stroke-linejoin="round" d="M 15.325717 273.929775 L 27.964412 273.929775 C 28.721652 273.929775 29.370715 274.198146 29.92963 274.734889 C 30.470516 275.289523 30.740959 275.933614 30.740959 276.702945 L 30.740959 283.269094 C 30.740959 284.038425 30.470516 284.700407 29.92963 285.23715 C 29.370715 285.773892 28.721652 286.060155 27.964412 286.060155 L 15.325717 286.060155 C 14.568477 286.060155 13.901385 285.773892 13.360499 285.23715 C 12.819614 284.700407 12.549171 284.038425 12.549171 283.269094 L 12.549171 276.702945 C 12.549171 275.933614 12.819614 275.289523 13.360499 274.734889 C 13.901385 274.198146 14.568477 273.929775 15.325717 273.929775" stroke="#000"/><path stroke-linecap="round" transform="matrix(0 .21666 -.21833 0 233.225 104.117)" fill="#FFF" stroke-linejoin="round" d="M 15.325717 293.252504 L 27.964412 293.252504 C 28.721652 293.252504 29.370715 293.538766 29.92963 294.075509 C 30.470516 294.612251 30.740959 295.274234 30.740959 296.043564 L 30.740959 302.609714 C 30.740959 303.379045 30.470516 304.023136 29.92963 304.559878 C 29.370715 305.114512 28.721652 305.382883 27.964412 305.382883 L 15.325717 305.382883 C 14.568477 305.382883 13.901385 305.114512 13.360499 304.559878 C 12.819614 304.023136 12.549171 303.379045 12.549171 302.609714 L 12.549171 296.043564 C 12.549171 295.274234 12.819614 294.612251 13.360499 294.075509 C 13.901385 293.538766 14.568477 293.252504 15.325717 293.252504" stroke="#000"/><path stroke-linecap="round" transform="matrix(0 .21666 -.21833 0 233.225 104.117)" fill="#FFF" stroke-linejoin="round" d="M 15.325717 312.593123 L 27.964412 312.593123 C 28.721652 312.593123 29.370715 312.879386 29.92963 313.416128 C 30.470516 313.952871 30.740959 314.614853 30.740959 315.384184 L 30.740959 321.950333 C 30.740959 322.719664 30.470516 323.363755 29.92963 323.900498 C 29.370715 324.455132 28.721652 324.723503 27.964412 324.723503 L 15.325717 324.723503 C 14.568477 324.723503 13.901385 324.455132 13.360499 323.900498 C 12.819614 323.363755 12.549171 322.719664 12.549171 321.950333 L 12.549171 315.384184 C 12.549171 314.614853 12.819614 313.952871 13.360499 313.416128 C 13.901385 312.879386 14.568477 312.593123 15.325717 312.593123" stroke="#000"/><path stroke-linecap="round" transform="matrix(0 .21666 -.21833 0 233.225 104.117)" fill="#FFF" stroke-linejoin="round" d="M 15.325717 331.933743 L 27.964412 331.933743 C 28.721652 331.933743 29.370715 332.220006 29.92963 332.756748 C 30.470516 333.293491 30.740959 333.955473 30.740959 334.724804 L 30.740959 341.290953 C 30.740959 342.042393 30.470516 342.704375 29.92963 343.241117 C 29.370715 343.795751 28.721652 344.064123 27.964412 344.064123 L 15.325717 344.064123 C 14.568477 344.064123 13.901385 343.795751 13.360499 343.241117 C 12.819614 342.704375 12.549171 342.042393 12.549171 341.290953 L 12.549171 334.724804 C 12.549171 333.955473 12.819614 333.293491 13.360499 332.756748 C 13.901385 332.220006 14.568477 331.933743 15.325717 331.933743" stroke="#000"/><path stroke-linecap="round" transform="matrix(0 .21666 -.21833 0 233.225 104.117)" fill="#FFF" stroke-linejoin="round" d="M 15.325717 351.274363 L 27.964412 351.274363 C 28.721652 351.274363 29.370715 351.542734 29.92963 352.097368 C 30.470516 352.63411 30.740959 353.296093 30.740959 354.065424 L 30.740959 360.631573 C 30.740959 361.383012 30.470516 362.044995 29.92963 362.581737 C 29.370715 363.136371 28.721652 363.404742 27.964412 363.404742 L 15.325717 363.404742 C 14.568477 363.404742 13.901385 363.136371 13.360499 362.581737 C 12.819614 362.044995 12.549171 361.383012 12.549171 360.631573 L 12.549171 354.065424 C 12.549171 353.296093 12.819614 352.63411 13.360499 352.097368 C 13.901385 351.542734 14.568477 351.274363 15.325717 351.274363" stroke="#000"/><path stroke-linecap="round" transform="matrix(0 .21666 -.21833 0 233.225 104.117)" fill="#FFF" stroke-linejoin="round" d="M 15.325717 370.614983 L 27.964412 370.614983 C 28.721652 370.614983 29.370715 370.883354 29.92963 371.420096 C 30.470516 371.97473 30.740959 372.618821 30.740959 373.388152 L 30.740959 379.954301 C 30.740959 380.723632 30.470516 381.367723 29.92963 381.922357 C 29.370715 382.459099 28.721652 382.727471 27.964412 382.727471 L 15.325717 382.727471 C 14.568477 382.727471 13.901385 382.459099 13.360499 381.922357 C 12.819614 381.367723 12.549171 380.723632 12.549171 379.954301 L 12.549171 373.388152 C 12.549171 372.618821 12.819614 371.97473 13.360499 371.420096 C 13.901385 370.883354 14.568477 370.614983 15.325717 370.614983" stroke="#000"/><path stroke-linecap="round" transform="matrix(0 .21666 -.21833 0 233.225 104.117)" fill="#FFF" stroke-linejoin="round" d="M 15.325717 389.955602 L 27.964412 389.955602 C 28.721652 389.955602 29.370715 390.223974 29.92963 390.760716 C 30.470516 391.297459 30.740959 391.959441 30.740959 392.728772 L 30.740959 399.294921 C 30.740959 400.064252 30.470516 400.708343 29.92963 401.262977 C 29.370715 401.799719 28.721652 402.06809 27.964412 402.06809 L 15.325717 402.06809 C 14.568477 402.06809 13.901385 401.799719 13.360499 401.262977 C 12.819614 400.708343 12.549171 400.064252 12.549171 399.294921 L 12.549171 392.728772 C 12.549171 391.959441 12.819614 391.297459 13.360499 390.760716 C 13.901385 390.223974 14.568477 389.955602 15.325717 389.955602" stroke="#000"/><path stroke-linecap="round" transform="matrix(0 .21666 -.21833 0 233.225 104.117)" fill="#FFF" stroke-linejoin="round" d="M 15.325717 409.296222 L 27.964412 409.296222 C 28.721652 409.296222 29.370715 409.564593 29.92963 410.101336 C 30.470516 410.638078 30.740959 411.300061 30.740959 412.069391 L 30.740959 418.635541 C 30.740959 419.404872 30.470516 420.048963 29.92963 420.603597 C 29.370715 421.140339 28.721652 421.40871 27.964412 421.40871 L 15.325717 421.40871 C 14.568477 421.40871 13.901385 421.140339 13.360499 420.603597 C 12.819614 420.048963 12.549171 419.404872 12.549171 418.635541 L 12.549171 412.069391 C 12.549171 411.300061 12.819614 410.638078 13.360499 410.101336 C 13.901385 409.564593 14.568477 409.296222 15.325717 409.296222" stroke="#000"/><path stroke-linecap="round" transform="matrix(0 .21666 -.21833 0 233.225 104.117)" fill="#FFF" stroke-linejoin="round" d="M 15.325717 428.61895 L 27.964412 428.61895 C 28.721652 428.61895 29.370715 428.887322 29.92963 429.441956 C 30.470516 429.978698 30.740959 430.622789 30.740959 431.39212 L 30.740959 437.958269 C 30.740959 438.7276 30.470516 439.389582 29.92963 439.926325 C 29.370715 440.463067 28.721652 440.74933 27.964412 440.74933 L 15.325717 440.74933 C 14.568477 440.74933 13.901385 440.463067 13.360499 439.926325 C 12.819614 439.389582 12.549171 438.7276 12.549171 437.958269 L 12.549171 431.39212 C 12.549171 430.622789 12.819614 429.978698 13.360499 429.441956 C 13.901385 428.887322 14.568477 428.61895 15.325717 428.61895" stroke="#000"/><path stroke-linecap="round" transform="matrix(0 .21666 -.21833 0 233.225 104.117)" fill="#FFF" stroke-linejoin="round" d="M 15.325717 447.95957 L 27.964412 447.95957 C 28.721652 447.95957 29.370715 448.227941 29.92963 448.764684 C 30.470516 449.319318 30.740959 449.963409 30.740959 450.73274 L 30.740959 457.298889 C 30.740959 458.06822 30.470516 458.730202 29.92963 459.266945 C 29.370715 459.803687 28.721652 460.08995 27.964412 460.08995 L 15.325717 460.08995 C 14.568477 460.08995 13.901385 459.803687 13.360499 459.266945 C 12.819614 458.730202 12.549171 458.06822 12.549171 457.298889 L 12.549171 450.73274 C 12.549171 449.963409 12.819614 449.319318 13.360499 448.764684 C 13.901385 448.227941 14.568477 447.95957 15.325717 447.95957" stroke="#000"/><path stroke-linecap="round" transform="matrix(0 .21666 -.21833 0 233.225 104.117)" fill="#FFF" stroke-linejoin="round" d="M 15.325717 467.30019 L 27.964412 467.30019 C 28.721652 467.30019 29.370715 467.568561 29.92963 468.105304 C 30.470516 468.659938 30.740959 469.304029 30.740959 470.073359 L 30.740959 476.639509 C 30.740959 477.40884 30.470516 478.070822 29.92963 478.607564 C 29.370715 479.144307 28.721652 479.430569 27.964412 479.430569 L 15.325717 479.430569 C 14.568477 479.430569 13.901385 479.144307 13.360499 478.607564 C 12.819614 478.070822 12.549171 477.40884 12.549171 476.639509 L 12.549171 470.073359 C 12.549171 469.304029 12.819614 468.659938 13.360499 468.105304 C 13.901385 467.568561 14.568477 467.30019 15.325717 467.30019" stroke="#000"/><path stroke-linecap="round" transform="matrix(0 .21666 -.21833 0 233.225 104.117)" fill="#FFF" stroke-linejoin="round" d="M 15.325717 486.64081 L 27.964412 486.64081 C 28.721652 486.64081 29.370715 486.909181 29.92963 487.445923 C 30.470516 488.000557 30.740959 488.644648 30.740959 489.413979 L 30.740959 495.980128 C 30.740959 496.749459 30.470516 497.411442 29.92963 497.948184 C 29.370715 498.484927 28.721652 498.753298 27.964412 498.753298 L 15.325717 498.753298 C 14.568477 498.753298 13.901385 498.484927 13.360499 497.948184 C 12.819614 497.411442 12.549171 496.749459 12.549171 495.980128 L 12.549171 489.413979 C 12.549171 488.644648 12.819614 488.000557 13.360499 487.445923 C 13.901385 486.909181 14.568477 486.64081 15.325717 486.64081" stroke="#000"/><path stroke-linecap="round" transform="matrix(0 .21666 -.21833 0 233.225 104.117)" fill="#FFF" stroke-linejoin="round" d="M 15.325717 505.963538 L 27.964412 505.963538 C 28.721652 505.963538 29.370715 506.249801 29.92963 506.786543 C 30.470516 507.323286 30.740959 507.985268 30.740959 508.754599 L 30.740959 515.320748 C 30.740959 516.072188 30.470516 516.73417 29.92963 517.270912 C 29.370715 517.825546 28.721652 518.093918 27.964412 518.093918 L 15.325717 518.093918 C 14.568477 518.093918 13.901385 517.825546 13.360499 517.270912 C 12.819614 516.73417 12.549171 516.072188 12.549171 515.320748 L 12.549171 508.754599 C 12.549171 507.985268 12.819614 507.323286 13.360499 506.786543 C 13.901385 506.249801 14.568477 505.963538 15.325717 505.963538" stroke="#000"/><path stroke-linecap="round" transform="matrix(0 .21666 -.21833 0 233.225 104.117)" fill="#FFF" stroke-linejoin="round" d="M 15.325717 525.304158 L 27.964412 525.304158 C 28.721652 525.304158 29.370715 525.572529 29.92963 526.127163 C 30.470516 526.663905 30.740959 527.325888 30.740959 528.095219 L 30.740959 534.661368 C 30.740959 535.412807 30.470516 536.07479 29.92963 536.611532 C 29.370715 537.166166 28.721652 537.434537 27.964412 537.434537 L 15.325717 537.434537 C 14.568477 537.434537 13.901385 537.166166 13.360499 536.611532 C 12.819614 536.07479 12.549171 535.412807 12.549171 534.661368 L 12.549171 528.095219 C 12.549171 527.325888 12.819614 526.663905 13.360499 526.127163 C 13.901385 525.572529 14.568477 525.304158 15.325717 525.304158" stroke="#000"/><path stroke-linecap="round" transform="matrix(0 .21666 -.21833 0 233.225 104.117)" fill="#FFF" stroke-linejoin="round" d="M 15.325717 544.644778 L 27.964412 544.644778 C 28.721652 544.644778 29.370715 544.913149 29.92963 545.467783 C 30.470516 546.004525 30.740959 546.666508 30.740959 547.435838 L 30.740959 554.001988 C 30.740959 554.753427 30.470516 555.41541 29.92963 555.952152 C 29.370715 556.506786 28.721652 556.775157 27.964412 556.775157 L 15.325717 556.775157 C 14.568477 556.775157 13.901385 556.506786 13.360499 555.952152 C 12.819614 555.41541 12.549171 554.753427 12.549171 554.001988 L 12.549171 547.435838 C 12.549171 546.666508 12.819614 546.004525 13.360499 545.467783 C 13.901385 544.913149 14.568477 544.644778 15.325717 544.644778" stroke="#000"/><path stroke-linecap="round" transform="matrix(0 .21666 -.21833 0 233.225 104.117)" fill="#FFF" stroke-linejoin="round" d="M 15.325717 563.985397 L 27.964412 563.985397 C 28.721652 563.985397 29.370715 564.253769 29.92963 564.790511 C 30.470516 565.327254 30.740959 565.989236 30.740959 566.758567 L 30.740959 573.324716 C 30.740959 574.094047 30.470516 574.738138 29.92963 575.292772 C 29.370715 575.829514 28.721652 576.097885 27.964412 576.097885 L 15.325717 576.097885 C 14.568477 576.097885 13.901385 575.829514 13.360499 575.292772 C 12.819614 574.738138 12.549171 574.094047 12.549171 573.324716 L 12.549171 566.758567 C 12.549171 565.989236 12.819614 565.327254 13.360499 564.790511 C 13.901385 564.253769 14.568477 563.985397 15.325717 563.985397" stroke="#000"/><path stroke-linecap="round" transform="matrix(0 .21666 -.21833 0 233.225 104.117)" fill="#FFF" stroke-linejoin="round" d="M 15.325717 583.326017 L 27.964412 583.326017 C 28.721652 583.326017 29.370715 583.594388 29.92963 584.131131 C 30.470516 584.667873 30.740959 585.329856 30.740959 586.099186 L 30.740959 592.665336 C 30.740959 593.434667 30.470516 594.078758 29.92963 594.633392 C 29.370715 595.170134 28.721652 595.438505 27.964412 595.438505 L 15.325717 595.438505 C 14.568477 595.438505 13.901385 595.170134 13.360499 594.633392 C 12.819614 594.078758 12.549171 593.434667 12.549171 592.665336 L 12.549171 586.099186 C 12.549171 585.329856 12.819614 584.667873 13.360499 584.131131 C 13.901385 583.594388 14.568477 583.326017 15.325717 583.326017" stroke="#000"/><path stroke-linecap="round" transform="matrix(0 .21666 -.21833 0 233.225 104.117)" fill="#FFF" stroke-linejoin="round" d="M 15.325717 602.666637 L 27.964412 602.666637 C 28.721652 602.666637 29.370715 602.935008 29.92963 603.471751 C 30.470516 604.008493 30.740959 604.670475 30.740959 605.439806 L 30.740959 612.005956 C 30.740959 612.775286 30.470516 613.419377 29.92963 613.974011 C 29.370715 614.510754 28.721652 614.779125 27.964412 614.779125 L 15.325717 614.779125 C 14.568477 614.779125 13.901385 614.510754 13.360499 613.974011 C 12.819614 613.419377 12.549171 612.775286 12.549171 612.005956 L 12.549171 605.439806 C 12.549171 604.670475 12.819614 604.008493 13.360499 603.471751 C 13.901385 602.935008 14.568477 602.666637 15.325717 602.666637" stroke="#000"/><path stroke-linecap="round" transform="matrix(0 .21666 -.21833 0 233.225 104.117)" fill="#FFF" stroke-linejoin="round" d="M 15.325717 622.007257 L 27.964412 622.007257 C 28.721652 622.007257 29.370715 622.275628 29.92963 622.81237 C 30.470516 623.349113 30.740959 624.011095 30.740959 624.780426 L 30.740959 631.346575 C 30.740959 632.115906 30.470516 632.759997 29.92963 633.314631 C 29.370715 633.851373 28.721652 634.119745 27.964412 634.119745 L 15.325717 634.119745 C 14.568477 634.119745 13.901385 633.851373 13.360499 633.314631 C 12.819614 632.759997 12.549171 632.115906 12.549171 631.346575 L 12.549171 624.780426 C 12.549171 624.011095 12.819614 623.349113 13.360499 622.81237 C 13.901385 622.275628 14.568477 622.007257 15.325717 622.007257" stroke="#000"/><path stroke-linecap="round" transform="matrix(0 .21666 -.21833 0 233.225 104.117)" fill="#FFF" stroke-linejoin="round" d="M 15.325717 641.329985 L 27.964412 641.329985 C 28.721652 641.329985 29.370715 641.598356 29.92963 642.135099 C 30.470516 642.689733 30.740959 643.333823 30.740959 644.103154 L 30.740959 650.669304 C 30.740959 651.438635 30.470516 652.100617 29.92963 652.637359 C 29.370715 653.174102 28.721652 653.460364 27.964412 653.460364 L 15.325717 653.460364 C 14.568477 653.460364 13.901385 653.174102 13.360499 652.637359 C 12.819614 652.100617 12.549171 651.438635 12.549171 650.669304 L 12.549171 644.103154 C 12.549171 643.333823 12.819614 642.689733 13.360499 642.135099 C 13.901385 641.598356 14.568477 641.329985 15.325717 641.329985" stroke="#000"/><path stroke-linecap="round" transform="matrix(0 .21666 -.21833 0 233.225 104.117)" fill="#FFF" stroke-linejoin="round" d="M 15.325717 660.670605 L 27.964412 660.670605 C 28.721652 660.670605 29.370715 660.938976 29.92963 661.475718 C 30.470516 662.030352 30.740959 662.674443 30.740959 663.443774 L 30.740959 670.009923 C 30.740959 670.779254 30.470516 671.441237 29.92963 671.977979 C 29.370715 672.514722 28.721652 672.783093 27.964412 672.783093 L 15.325717 672.783093 C 14.568477 672.783093 13.901385 672.514722 13.360499 671.977979 C 12.819614 671.441237 12.549171 670.779254 12.549171 670.009923 L 12.549171 663.443774 C 12.549171 662.674443 12.819614 662.030352 13.360499 661.475718 C 13.901385 660.938976 14.568477 660.670605 15.325717 660.670605" stroke="#000"/><path stroke-linecap="round" transform="matrix(0 .21666 -.21833 0 233.225 104.117)" fill="#FFF" stroke-linejoin="round" d="M 15.325717 680.011225 L 27.964412 680.011225 C 28.721652 680.011225 29.370715 680.279596 29.92963 680.816338 C 30.470516 681.370972 30.740959 682.015063 30.740959 682.784394 L 30.740959 689.350543 C 30.740959 690.119874 30.470516 690.781856 29.92963 691.318599 C 29.370715 691.855341 28.721652 692.123713 27.964412 692.123713 L 15.325717 692.123713 C 14.568477 692.123713 13.901385 691.855341 13.360499 691.318599 C 12.819614 690.781856 12.549171 690.119874 12.549171 689.350543 L 12.549171 682.784394 C 12.549171 682.015063 12.819614 681.370972 13.360499 680.816338 C 13.901385 680.279596 14.568477 680.011225 15.325717 680.011225" stroke="#000"/><path stroke-linecap="round" transform="matrix(0 .21666 -.21833 0 233.225 104.117)" fill="#FFF" stroke-linejoin="round" d="M 15.325717 699.333953 L 27.964412 699.333953 C 28.721652 699.333953 29.370715 699.602324 29.92963 700.156958 C 30.470516 700.6937 30.740959 701.355683 30.740959 702.125014 L 30.740959 708.691163 C 30.740959 709.442602 30.470516 710.104585 29.92963 710.641327 C 29.370715 711.195961 28.721652 711.464332 27.964412 711.464332 L 15.325717 711.464332 C 14.568477 711.464332 13.901385 711.195961 13.360499 710.641327 C 12.819614 710.104585 12.549171 709.442602 12.549171 708.691163 L 12.549171 702.125014 C 12.549171 701.355683 12.819614 700.6937 13.360499 700.156958 C 13.901385 699.620215 14.568477 699.333953 15.325717 699.333953" stroke="#000"/><path stroke-linecap="round" transform="matrix(0 .21666 -.21833 0 233.225 104.117)" fill="#FFF" stroke-linejoin="round" d="M 15.325717 718.674573 L 27.964412 718.674573 C 28.721652 718.674573 29.370715 718.942944 29.92963 719.497578 C 30.470516 720.03432 30.740959 720.696303 30.740959 721.465633 L 30.740959 728.031783 C 30.740959 728.783222 30.470516 729.445205 29.92963 729.981947 C 29.370715 730.536581 28.721652 730.804952 27.964412 730.804952 L 15.325717 730.804952 C 14.568477 730.804952 13.901385 730.536581 13.360499 729.981947 C 12.819614 729.445205 12.549171 728.783222 12.549171 728.031783 L 12.549171 721.465633 C 12.549171 720.696303 12.819614 720.03432 13.360499 719.497578 C 13.901385 718.942944 14.568477 718.674573 15.325717 718.674573" stroke="#000"/><path stroke-linecap="round" transform="matrix(0 .21666 -.21833 0 233.225 104.117)" fill="#FFF" stroke-linejoin="round" d="M 15.325717 738.015192 L 27.964412 738.015192 C 28.721652 738.015192 29.370715 738.283564 29.92963 738.838197 C 30.470516 739.37494 30.740959 740.036922 30.740959 740.806253 L 30.740959 747.372402 C 30.740959 748.123842 30.470516 748.785824 29.92963 749.322567 C 29.370715 749.877201 28.721652 750.145572 27.964412 750.145572 L 15.325717 750.145572 C 14.568477 750.145572 13.901385 749.877201 13.360499 749.322567 C 12.819614 748.785824 12.549171 748.123842 12.549171 747.372402 L 12.549171 740.806253 C 12.549171 740.036922 12.819614 739.37494 13.360499 738.838197 C 13.901385 738.283564 14.568477 738.015192 15.325717 738.015192" stroke="#000"/><path stroke-linecap="round" transform="matrix(0 1.49544 -1.5 0 101.306 112.476)" fill="none" d="M 0.499069 0.000556232 L 20.06897 0.000556232" stroke="#000"/><path stroke-linecap="round" transform="matrix(0 1.49886 -1.5 0 89.114 111.044)" fill="none" d="M 0.499446 0.000452132 L 20.022129 0.000452132" stroke="#000"/><path stroke-linecap="round" transform="matrix(.00714 1.52044 -1.49998 .00704 124.994 110.757)" fill="none" d="M 0.499255 0.00120482 L 17.265574 0.000283036" stroke="#000"/><path stroke-linecap="round" transform="matrix(.01031 1.4897 -1.49996 .01038 145.731 111.724)" fill="none" d="M 0.499985 0.00120818 L 16.621163 0.0000662429" stroke="#000"/><path stroke-linecap="round" transform="matrix(-.01048 1.4897 -1.49996 -.01055 171.37 111.721)" fill="none" d="M 0.499113 0.000591298 L 16.625535 -0.0000471141" stroke="#000"/><path stroke-linecap="round" transform="matrix(0 1.5121 -1.5 0 191.088 109.032)" fill="none" d="M 0.500347 -0.00102813 L 19.839122 -0.00102813" stroke="#000"/><path stroke-linecap="round" transform="matrix(.00602 1.50064 -1.49999 .00602 69.127 111.046)" fill="none" d="M 0.50017 0.000763985 L 17.498146 -0.00128388" stroke="#000"/><g><g><g><path d="M 15.59375 -1.390625 C 15.070312 -1.015625 14.351562 -0.65625 13.4375 -0.3125 C 12.519531 0.0195312 11.515625 0.1875 10.421875 0.1875 C 8.585938 0.1875 6.984375 -0.210938 5.609375 -1.015625 C 4.242188 -1.816406 3.191406 -2.894531 2.453125 -4.25 C 1.710938 -5.601562 1.34375 -7.09375 1.34375 -8.71875 C 1.34375 -10.488281 1.710938 -12.070312 2.453125 -13.46875 C 3.191406 -14.863281 4.222656 -15.953125 5.546875 -16.734375 C 6.867188 -17.523438 8.375 -17.921875 10.0625 -17.921875 C 11.101562 -17.921875 12.066406 -17.78125 12.953125 -17.5 C 13.835938 -17.226562 14.617188 -16.882812 15.296875 -16.46875 L 14.171875 -13.8125 C 12.859375 -14.738281 11.519531 -15.203125 10.15625 -15.203125 C 9.113281 -15.203125 8.140625 -14.921875 7.234375 -14.359375 C 6.335938 -13.796875 5.617188 -13.03125 5.078125 -12.0625 C 4.546875 -11.101562 4.28125 -10.046875 4.28125 -8.890625 C 4.28125 -7.671875 4.523438 -6.578125 5.015625 -5.609375 C 5.515625 -4.648438 6.222656 -3.894531 7.140625 -3.34375 C 8.066406 -2.800781 9.128906 -2.53125 10.328125 -2.53125 C 11.191406 -2.53125 11.96875 -2.660156 12.65625 -2.921875 C 13.34375 -3.179688 13.921875 -3.515625 14.390625 -3.921875 Z M 15.59375 -1.390625" transform="translate(70.572 132.607)"/></g></g></g><g><g><g><path d="M 5.28125 -17.734375 L 5.28125 0 L 2.4375 0 L 2.4375 -17.734375 Z M 5.28125 -17.734375" transform="translate(91.224 132.607)"/></g></g></g><g><g><g><path d="M 18.09375 -17.734375 L 18.09375 0.640625 L 18.03125 0.640625 L 5.234375 -11.765625 L 5.3125 0 L 2.4375 0 L 2.4375 -18.34375 L 2.578125 -18.34375 L 15.328125 -5.796875 L 15.265625 -17.734375 Z M 18.09375 -17.734375" transform="translate(102.67 132.607)"/></g></g></g><g><g><g><path d="M 14.203125 -17.734375 L 14.203125 -15 L 5.28125 -15 L 5.28125 -10.28125 L 13.234375 -10.28125 L 13.234375 -7.546875 L 5.28125 -7.546875 L 5.28125 -2.734375 L 14.546875 -2.734375 L 14.546875 0 L 2.4375 0 L 2.4375 -17.734375 Z M 14.203125 -17.734375" transform="translate(126.95 132.607)"/></g></g></g><g><g><g><path d="M 20.34375 -18.359375 L 20.34375 0 L 17.515625 0 L 17.515625 -10.25 L 11.296875 -1.4375 L 11.25 -1.4375 L 5.1875 -9.84375 L 5.1875 0 L 2.4375 0 L 2.4375 -18.359375 L 2.453125 -18.359375 L 11.296875 -5.84375 L 20.296875 -18.359375 Z M 20.34375 -18.359375" transform="translate(146.7 132.607)"/></g></g></g><g><g><g><path d="M 11.546875 -4.171875 L 5.09375 -4.171875 L 3.390625 0 L 0.578125 0 L 8.421875 -18.46875 L 8.59375 -18.46875 L 16.4375 0 L 13.171875 0 Z M 10.59375 -6.59375 L 8.375 -12.203125 L 6.09375 -6.59375 Z M 10.59375 -6.59375" transform="translate(173.196 132.607)"/></g></g></g><g><g><g><path d="M 11.734375 -14.125 C 10.210938 -14.925781 8.859375 -15.328125 7.671875 -15.328125 C 6.796875 -15.328125 6.101562 -15.128906 5.59375 -14.734375 C 5.082031 -14.347656 4.828125 -13.8125 4.828125 -13.125 C 4.828125 -12.457031 5.144531 -11.898438 5.78125 -11.453125 C 6.425781 -11.015625 7.328125 -10.578125 8.484375 -10.140625 C 9.359375 -9.828125 10.109375 -9.472656 10.734375 -9.078125 C 11.359375 -8.679688 11.875 -8.140625 12.28125 -7.453125 C 12.6875 -6.773438 12.890625 -5.914062 12.890625 -4.875 C 12.890625 -3.925781 12.648438 -3.070312 12.171875 -2.3125 C 11.703125 -1.550781 11.019531 -0.941406 10.125 -0.484375 C 9.238281 -0.0351562 8.1875 0.1875 6.96875 0.1875 C 5.894531 0.1875 4.835938 0.0234375 3.796875 -0.296875 C 2.753906 -0.628906 1.828125 -1.09375 1.015625 -1.6875 L 2.296875 -3.890625 C 2.890625 -3.441406 3.597656 -3.066406 4.421875 -2.765625 C 5.242188 -2.460938 6.003906 -2.3125 6.703125 -2.3125 C 7.554688 -2.3125 8.304688 -2.519531 8.953125 -2.9375 C 9.609375 -3.351562 9.9375 -3.988281 9.9375 -4.84375 C 9.9375 -5.53125 9.664062 -6.097656 9.125 -6.546875 C 8.582031 -7.003906 7.820312 -7.421875 6.84375 -7.796875 C 5.832031 -8.171875 4.992188 -8.539062 4.328125 -8.90625 C 3.671875 -9.269531 3.101562 -9.78125 2.625 -10.4375 C 2.144531 -11.09375 1.90625 -11.914062 1.90625 -12.90625 C 1.90625 -14.351562 2.394531 -15.519531 3.375 -16.40625 C 4.351562 -17.289062 5.648438 -17.765625 7.265625 -17.828125 C 8.429688 -17.828125 9.457031 -17.691406 10.34375 -17.421875 C 11.226562 -17.160156 12.050781 -16.785156 12.8125 -16.296875 Z M 11.734375 -14.125" transform="translate(193.945 132.607)"/></g></g></g><g><g><g><path d="M 16.875 0.78125 L 12.6875 -9.796875 L 7.984375 0.828125 L 0.90625 -17.640625 L 4.21875 -17.640625 L 8.359375 -5.796875 L 11.296875 -13.34375 L 9.59375 -17.640625 L 12.40625 -17.640625 L 16.953125 -6.140625 L 20.75 -17.640625 L 23.796875 -17.640625 Z M 16.875 0.78125" transform="translate(211.845 132.607)"/></g></g></g><g><g><g><path d="M 5.28125 -17.734375 L 5.28125 0 L 2.4375 0 L 2.4375 -17.734375 Z M 5.28125 -17.734375" transform="translate(240.265 132.607)"/></g></g></g><g><g><g><path d="M 7.453125 -17.734375 C 9.460938 -17.734375 11.035156 -17.226562 12.171875 -16.21875 C 13.316406 -15.21875 13.890625 -13.820312 13.890625 -12.03125 C 13.890625 -11.007812 13.6875 -10.054688 13.28125 -9.171875 C 12.875 -8.285156 12.21875 -7.5625 11.3125 -7 C 10.414062 -6.4375 9.257812 -6.15625 7.84375 -6.15625 L 5.28125 -6.15625 L 5.28125 0 L 2.4375 0 L 2.4375 -17.734375 Z M 7.84375 -8.890625 C 8.625 -8.890625 9.253906 -9.054688 9.734375 -9.390625 C 10.210938 -9.722656 10.550781 -10.128906 10.75 -10.609375 C 10.957031 -11.085938 11.0625 -11.546875 11.0625 -11.984375 C 11.0625 -12.734375 10.820312 -13.421875 10.34375 -14.046875 C 9.863281 -14.679688 9.054688 -15 7.921875 -15 L 5.28125 -15 L 5.28125 -8.890625 Z M 7.84375 -8.890625" transform="translate(251.711 132.607)"/></g></g></g><g><g><g><path d="M 14.203125 -17.734375 L 14.203125 -15 L 5.28125 -15 L 5.28125 -10.28125 L 13.234375 -10.28125 L 13.234375 -7.546875 L 5.28125 -7.546875 L 5.28125 -2.734375 L 14.546875 -2.734375 L 14.546875 0 L 2.4375 0 L 2.4375 -17.734375 Z M 14.203125 -17.734375" transform="translate(270.317 132.607)"/></g></g></g><g clip-path="url(#s)"><path d="M 293.046875 114.398438 L 302.332031 124.09375 L 292.984375 133.851562 L 291.082031 131.867188 L 298.53125 124.09375 L 291.148438 116.382812 L 293.046875 114.398438"/></g></svg>