<svg xmlns="http://www.w3.org/2000/svg" width="375" viewBox="0 0 375 375" height="375" version="1.0"><defs><clipPath id="a"><path d="M 68.226562 135.753906 L 191.976562 135.753906 L 191.976562 143.253906 L 68.226562 143.253906 Z M 68.226562 135.753906"/></clipPath><clipPath id="b"><path d="M 166 143 L 189 143 L 189 143.253906 L 166 143.253906 Z M 166 143"/></clipPath><clipPath id="c"><path d="M 166 142 L 189 142 L 189 143.253906 L 166 143.253906 Z M 166 142"/></clipPath><clipPath id="d"><path d="M 142 143 L 165 143 L 165 143.253906 L 142 143.253906 Z M 142 143"/></clipPath><clipPath id="e"><path d="M 142 142 L 165 142 L 165 143.253906 L 142 143.253906 Z M 142 142"/></clipPath><clipPath id="f"><path d="M 119 143 L 141 143 L 141 143.253906 L 119 143.253906 Z M 119 143"/></clipPath><clipPath id="g"><path d="M 119 142 L 141 142 L 141 143.253906 L 119 143.253906 Z M 119 142"/></clipPath><clipPath id="h"><path d="M 95 143 L 117 143 L 117 143.253906 L 95 143.253906 Z M 95 143"/></clipPath><clipPath id="i"><path d="M 95 142 L 117 142 L 117 143.253906 L 95 143.253906 Z M 95 142"/></clipPath><clipPath id="j"><path d="M 71 143 L 93 143 L 93 143.253906 L 71 143.253906 Z M 71 143"/></clipPath><clipPath id="k"><path d="M 71 142 L 94 142 L 94 143.253906 L 71 143.253906 Z M 71 142"/></clipPath><clipPath id="l"><path d="M 68.226562 105.246094 L 191.976562 105.246094 L 191.976562 112.746094 L 68.226562 112.746094 Z M 68.226562 105.246094"/></clipPath><clipPath id="m"><path d="M 166 112 L 189 112 L 189 112.746094 L 166 112.746094 Z M 166 112"/></clipPath><clipPath id="n"><path d="M 142 112 L 165 112 L 165 112.746094 L 142 112.746094 Z M 142 112"/></clipPath><clipPath id="o"><path d="M 119 112 L 141 112 L 141 112.746094 L 119 112.746094 Z M 119 112"/></clipPath><clipPath id="p"><path d="M 95 112 L 117 112 L 117 112.746094 L 95 112.746094 Z M 95 112"/></clipPath><clipPath id="q"><path d="M 71 112 L 93 112 L 93 112.746094 L 71 112.746094 Z M 71 112"/></clipPath><clipPath id="r"><path d="M 71 112 L 94 112 L 94 112.746094 L 71 112.746094 Z M 71 112"/></clipPath><clipPath id="s"><path d="M 291.085938 114.375 L 302.335938 114.375 L 302.335938 133.875 L 291.085938 133.875 Z M 291.085938 114.375"/></clipPath></defs><path fill="#FFF" d="M-37.5 -37.5H412.5V412.5H-37.5z"/><g clip-path="url(#a)"><path stroke-linecap="round" transform="matrix(0 .21666 -.21833 0 200.225 182.76)" stroke-linejoin="round" d="M -216.182181 38.351236 L -216.182181 604.059891 L -183.873278 604.059891 L -183.873278 594.935269 L -108.095197 594.935269 L -108.095197 604.059891 L -75.786294 604.059891 L -75.786294 38.351236 L -108.095197 38.351236 L -108.095197 47.440075 L -183.873278 47.440075 L -183.873278 38.351236 Z M -216.182181 38.351236" stroke="#000" stroke-width="1.094"/></g><g clip-path="url(#b)"><path fill="#FFF" d="M 188.15625 143.035156 L 188.15625 159.230469 L 166.765625 159.230469 L 166.765625 143.035156 Z M 188.15625 143.035156"/></g><g clip-path="url(#c)"><path stroke-linecap="round" transform="matrix(0 .21666 -.21833 0 233.998 159.96)" fill="none" stroke-linejoin="round" d="M -78.120445 209.965475 L -3.370047 209.965475 L -3.370047 307.938864 L -78.120445 307.938864 Z M -78.120445 209.965475" stroke="#000"/></g><g clip-path="url(#d)"><path fill="#FFF" d="M 164.367188 143.035156 L 164.367188 159.230469 L 142.972656 159.230469 L 142.972656 143.035156 Z M 164.367188 143.035156"/></g><g clip-path="url(#e)"><path stroke-linecap="round" transform="matrix(0 .21666 -.21833 0 233.998 159.96)" fill="none" stroke-linejoin="round" d="M -78.120445 318.924193 L -3.370047 318.924193 L -3.370047 416.915474 L -78.120445 416.915474 Z M -78.120445 318.924193" stroke="#000"/></g><g clip-path="url(#f)"><path fill="#FFF" d="M 140.574219 143.035156 L 140.574219 159.230469 L 119.179688 159.230469 L 119.179688 143.035156 Z M 140.574219 143.035156"/></g><g clip-path="url(#g)"><path stroke-linecap="round" transform="matrix(0 .21666 -.21833 0 233.998 159.96)" fill="none" stroke-linejoin="round" d="M -78.120445 427.900802 L -3.370047 427.900802 L -3.370047 525.892083 L -78.120445 525.892083 Z M -78.120445 427.900802" stroke="#000"/></g><g clip-path="url(#h)"><path fill="#FFF" d="M 116.78125 143.035156 L 116.78125 159.230469 L 95.390625 159.230469 L 95.390625 143.035156 Z M 116.78125 143.035156"/></g><g clip-path="url(#i)"><path stroke-linecap="round" transform="matrix(0 .21666 -.21833 0 233.998 159.96)" fill="none" stroke-linejoin="round" d="M -78.120445 536.877412 L -3.370047 536.877412 L -3.370047 634.850801 L -78.120445 634.850801 Z M -78.120445 536.877412" stroke="#000"/></g><g clip-path="url(#j)"><path fill="#FFF" d="M 92.992188 143.035156 L 92.992188 159.230469 L 71.597656 159.230469 L 71.597656 143.035156 Z M 92.992188 143.035156"/></g><g clip-path="url(#k)"><path stroke-linecap="round" transform="matrix(0 .21666 -.21833 0 233.998 159.96)" fill="none" stroke-linejoin="round" d="M -78.120445 645.83613 L -3.370047 645.83613 L -3.370047 743.827411 L -78.120445 743.827411 Z M -78.120445 645.83613" stroke="#000"/></g><path stroke-linecap="round" transform="matrix(0 .21666 -.21833 0 233.225 134.624)" fill="#FFF" stroke-linejoin="round" d="M 15.330075 196.585188 L 27.95074 196.585188 C 28.72601 196.585188 29.375073 196.853559 29.915958 197.390301 C 30.456844 197.944935 30.727287 198.589026 30.727287 199.358357 L 30.727287 205.924506 C 30.727287 206.693837 30.456844 207.337928 29.915958 207.892562 C 29.375073 208.429304 28.72601 208.697676 27.95074 208.697676 L 15.330075 208.697676 C 14.554805 208.697676 13.905743 208.429304 13.364857 207.892562 C 12.823971 207.337928 12.553529 206.693837 12.553529 205.924506 L 12.553529 199.358357 C 12.553529 198.589026 12.823971 197.944935 13.364857 197.390301 C 13.905743 196.853559 14.554805 196.585188 15.330075 196.585188" stroke="#000"/><path stroke-linecap="round" transform="matrix(0 .21666 -.21833 0 233.225 134.624)" fill="#FFF" stroke-linejoin="round" d="M 15.330075 215.907916 L 27.95074 215.907916 C 28.72601 215.907916 29.375073 216.176287 29.915958 216.730921 C 30.456844 217.267664 30.727287 217.929646 30.727287 218.681085 L 30.727287 225.247235 C 30.727287 226.016566 30.456844 226.678548 29.915958 227.21529 C 29.375073 227.752033 28.72601 228.038295 27.95074 228.038295 L 15.330075 228.038295 C 14.554805 228.038295 13.905743 227.752033 13.364857 227.21529 C 12.823971 226.678548 12.553529 226.016566 12.553529 225.247235 L 12.553529 218.681085 C 12.553529 217.929646 12.823971 217.267664 13.364857 216.730921 C 13.905743 216.176287 14.554805 215.907916 15.330075 215.907916" stroke="#000"/><path stroke-linecap="round" transform="matrix(0 .21666 -.21833 0 233.225 134.624)" fill="#FFF" stroke-linejoin="round" d="M 15.330075 235.248536 L 27.95074 235.248536 C 28.72601 235.248536 29.375073 235.516907 29.915958 236.071541 C 30.456844 236.608283 30.727287 237.252374 30.727287 238.021705 L 30.727287 244.587854 C 30.727287 245.357185 30.456844 246.019168 29.915958 246.55591 C 29.375073 247.092653 28.72601 247.378915 27.95074 247.378915 L 15.330075 247.378915 C 14.554805 247.378915 13.905743 247.092653 13.364857 246.55591 C 12.823971 246.019168 12.553529 245.357185 12.553529 244.587854 L 12.553529 238.021705 C 12.553529 237.252374 12.823971 236.608283 13.364857 236.071541 C 13.905743 235.516907 14.554805 235.248536 15.330075 235.248536" stroke="#000"/><path stroke-linecap="round" transform="matrix(0 .21666 -.21833 0 233.225 134.624)" fill="#FFF" stroke-linejoin="round" d="M 15.330075 254.589156 L 27.95074 254.589156 C 28.72601 254.589156 29.375073 254.857527 29.915958 255.412161 C 30.456844 255.948903 30.727287 256.592994 30.727287 257.362325 L 30.727287 263.928474 C 30.727287 264.697805 30.456844 265.359787 29.915958 265.89653 C 29.375073 266.433272 28.72601 266.719535 27.95074 266.719535 L 15.330075 266.719535 C 14.554805 266.719535 13.905743 266.433272 13.364857 265.89653 C 12.823971 265.359787 12.553529 264.697805 12.553529 263.928474 L 12.553529 257.362325 C 12.553529 256.592994 12.823971 255.948903 13.364857 255.412161 C 13.905743 254.857527 14.554805 254.589156 15.330075 254.589156" stroke="#000"/><path stroke-linecap="round" transform="matrix(0 .21666 -.21833 0 233.225 134.624)" fill="#FFF" stroke-linejoin="round" d="M 15.330075 273.929775 L 27.95074 273.929775 C 28.72601 273.929775 29.375073 274.198146 29.915958 274.734889 C 30.456844 275.289523 30.727287 275.933614 30.727287 276.702945 L 30.727287 283.269094 C 30.727287 284.038425 30.456844 284.700407 29.915958 285.23715 C 29.375073 285.773892 28.72601 286.060155 27.95074 286.060155 L 15.330075 286.060155 C 14.554805 286.060155 13.905743 285.773892 13.364857 285.23715 C 12.823971 284.700407 12.553529 284.038425 12.553529 283.269094 L 12.553529 276.702945 C 12.553529 275.933614 12.823971 275.289523 13.364857 274.734889 C 13.905743 274.198146 14.554805 273.929775 15.330075 273.929775" stroke="#000"/><path stroke-linecap="round" transform="matrix(0 .21666 -.21833 0 233.225 134.624)" fill="#FFF" stroke-linejoin="round" d="M 15.330075 293.252504 L 27.95074 293.252504 C 28.72601 293.252504 29.375073 293.538766 29.915958 294.075509 C 30.456844 294.612251 30.727287 295.274234 30.727287 296.043564 L 30.727287 302.609714 C 30.727287 303.379045 30.456844 304.023136 29.915958 304.559878 C 29.375073 305.114512 28.72601 305.382883 27.95074 305.382883 L 15.330075 305.382883 C 14.554805 305.382883 13.905743 305.114512 13.364857 304.559878 C 12.823971 304.023136 12.553529 303.379045 12.553529 302.609714 L 12.553529 296.043564 C 12.553529 295.274234 12.823971 294.612251 13.364857 294.075509 C 13.905743 293.538766 14.554805 293.252504 15.330075 293.252504" stroke="#000"/><path stroke-linecap="round" transform="matrix(0 .21666 -.21833 0 233.225 134.624)" fill="#FFF" stroke-linejoin="round" d="M 15.330075 312.593123 L 27.95074 312.593123 C 28.72601 312.593123 29.375073 312.879386 29.915958 313.416128 C 30.456844 313.952871 30.727287 314.614853 30.727287 315.384184 L 30.727287 321.950333 C 30.727287 322.719664 30.456844 323.363755 29.915958 323.900498 C 29.375073 324.455132 28.72601 324.723503 27.95074 324.723503 L 15.330075 324.723503 C 14.554805 324.723503 13.905743 324.455132 13.364857 323.900498 C 12.823971 323.363755 12.553529 322.719664 12.553529 321.950333 L 12.553529 315.384184 C 12.553529 314.614853 12.823971 313.952871 13.364857 313.416128 C 13.905743 312.879386 14.554805 312.593123 15.330075 312.593123" stroke="#000"/><path stroke-linecap="round" transform="matrix(0 .21666 -.21833 0 233.225 134.624)" fill="#FFF" stroke-linejoin="round" d="M 15.330075 331.933743 L 27.95074 331.933743 C 28.72601 331.933743 29.375073 332.220006 29.915958 332.756748 C 30.456844 333.293491 30.727287 333.955473 30.727287 334.724804 L 30.727287 341.290953 C 30.727287 342.042393 30.456844 342.704375 29.915958 343.241117 C 29.375073 343.795751 28.72601 344.064123 27.95074 344.064123 L 15.330075 344.064123 C 14.554805 344.064123 13.905743 343.795751 13.364857 343.241117 C 12.823971 342.704375 12.553529 342.042393 12.553529 341.290953 L 12.553529 334.724804 C 12.553529 333.955473 12.823971 333.293491 13.364857 332.756748 C 13.905743 332.220006 14.554805 331.933743 15.330075 331.933743" stroke="#000"/><path stroke-linecap="round" transform="matrix(0 .21666 -.21833 0 233.225 134.624)" fill="#FFF" stroke-linejoin="round" d="M 15.330075 351.274363 L 27.95074 351.274363 C 28.72601 351.274363 29.375073 351.542734 29.915958 352.097368 C 30.456844 352.63411 30.727287 353.296093 30.727287 354.065424 L 30.727287 360.631573 C 30.727287 361.383012 30.456844 362.044995 29.915958 362.581737 C 29.375073 363.136371 28.72601 363.404742 27.95074 363.404742 L 15.330075 363.404742 C 14.554805 363.404742 13.905743 363.136371 13.364857 362.581737 C 12.823971 362.044995 12.553529 361.383012 12.553529 360.631573 L 12.553529 354.065424 C 12.553529 353.296093 12.823971 352.63411 13.364857 352.097368 C 13.905743 351.542734 14.554805 351.274363 15.330075 351.274363" stroke="#000"/><path stroke-linecap="round" transform="matrix(0 .21666 -.21833 0 233.225 134.624)" fill="#FFF" stroke-linejoin="round" d="M 15.330075 370.614983 L 27.95074 370.614983 C 28.72601 370.614983 29.375073 370.883354 29.915958 371.420096 C 30.456844 371.97473 30.727287 372.618821 30.727287 373.388152 L 30.727287 379.954301 C 30.727287 380.723632 30.456844 381.367723 29.915958 381.922357 C 29.375073 382.459099 28.72601 382.727471 27.95074 382.727471 L 15.330075 382.727471 C 14.554805 382.727471 13.905743 382.459099 13.364857 381.922357 C 12.823971 381.367723 12.553529 380.723632 12.553529 379.954301 L 12.553529 373.388152 C 12.553529 372.618821 12.823971 371.97473 13.364857 371.420096 C 13.905743 370.883354 14.554805 370.614983 15.330075 370.614983" stroke="#000"/><path stroke-linecap="round" transform="matrix(0 .21666 -.21833 0 233.225 134.624)" fill="#FFF" stroke-linejoin="round" d="M 15.330075 389.955602 L 27.95074 389.955602 C 28.72601 389.955602 29.375073 390.223974 29.915958 390.760716 C 30.456844 391.297459 30.727287 391.959441 30.727287 392.728772 L 30.727287 399.294921 C 30.727287 400.064252 30.456844 400.708343 29.915958 401.262977 C 29.375073 401.799719 28.72601 402.06809 27.95074 402.06809 L 15.330075 402.06809 C 14.554805 402.06809 13.905743 401.799719 13.364857 401.262977 C 12.823971 400.708343 12.553529 400.064252 12.553529 399.294921 L 12.553529 392.728772 C 12.553529 391.959441 12.823971 391.297459 13.364857 390.760716 C 13.905743 390.223974 14.554805 389.955602 15.330075 389.955602" stroke="#000"/><path stroke-linecap="round" transform="matrix(0 .21666 -.21833 0 233.225 134.624)" fill="#FFF" stroke-linejoin="round" d="M 15.330075 409.296222 L 27.95074 409.296222 C 28.72601 409.296222 29.375073 409.564593 29.915958 410.101336 C 30.456844 410.638078 30.727287 411.300061 30.727287 412.069391 L 30.727287 418.635541 C 30.727287 419.404872 30.456844 420.048963 29.915958 420.603597 C 29.375073 421.140339 28.72601 421.40871 27.95074 421.40871 L 15.330075 421.40871 C 14.554805 421.40871 13.905743 421.140339 13.364857 420.603597 C 12.823971 420.048963 12.553529 419.404872 12.553529 418.635541 L 12.553529 412.069391 C 12.553529 411.300061 12.823971 410.638078 13.364857 410.101336 C 13.905743 409.564593 14.554805 409.296222 15.330075 409.296222" stroke="#000"/><path stroke-linecap="round" transform="matrix(0 .21666 -.21833 0 233.225 134.624)" fill="#FFF" stroke-linejoin="round" d="M 15.330075 428.61895 L 27.95074 428.61895 C 28.72601 428.61895 29.375073 428.887322 29.915958 429.441956 C 30.456844 429.978698 30.727287 430.622789 30.727287 431.39212 L 30.727287 437.958269 C 30.727287 438.7276 30.456844 439.389582 29.915958 439.926325 C 29.375073 440.463067 28.72601 440.74933 27.95074 440.74933 L 15.330075 440.74933 C 14.554805 440.74933 13.905743 440.463067 13.364857 439.926325 C 12.823971 439.389582 12.553529 438.7276 12.553529 437.958269 L 12.553529 431.39212 C 12.553529 430.622789 12.823971 429.978698 13.364857 429.441956 C 13.905743 428.887322 14.554805 428.61895 15.330075 428.61895" stroke="#000"/><path stroke-linecap="round" transform="matrix(0 .21666 -.21833 0 233.225 134.624)" fill="#FFF" stroke-linejoin="round" d="M 15.330075 447.95957 L 27.95074 447.95957 C 28.72601 447.95957 29.375073 448.227941 29.915958 448.764684 C 30.456844 449.319318 30.727287 449.963409 30.727287 450.73274 L 30.727287 457.298889 C 30.727287 458.06822 30.456844 458.730202 29.915958 459.266945 C 29.375073 459.803687 28.72601 460.08995 27.95074 460.08995 L 15.330075 460.08995 C 14.554805 460.08995 13.905743 459.803687 13.364857 459.266945 C 12.823971 458.730202 12.553529 458.06822 12.553529 457.298889 L 12.553529 450.73274 C 12.553529 449.963409 12.823971 449.319318 13.364857 448.764684 C 13.905743 448.227941 14.554805 447.95957 15.330075 447.95957" stroke="#000"/><path stroke-linecap="round" transform="matrix(0 .21666 -.21833 0 233.225 134.624)" fill="#FFF" stroke-linejoin="round" d="M 15.330075 467.30019 L 27.95074 467.30019 C 28.72601 467.30019 29.375073 467.568561 29.915958 468.105304 C 30.456844 468.659938 30.727287 469.304029 30.727287 470.073359 L 30.727287 476.639509 C 30.727287 477.40884 30.456844 478.070822 29.915958 478.607564 C 29.375073 479.144307 28.72601 479.430569 27.95074 479.430569 L 15.330075 479.430569 C 14.554805 479.430569 13.905743 479.144307 13.364857 478.607564 C 12.823971 478.070822 12.553529 477.40884 12.553529 476.639509 L 12.553529 470.073359 C 12.553529 469.304029 12.823971 468.659938 13.364857 468.105304 C 13.905743 467.568561 14.554805 467.30019 15.330075 467.30019" stroke="#000"/><path stroke-linecap="round" transform="matrix(0 .21666 -.21833 0 233.225 134.624)" fill="#FFF" stroke-linejoin="round" d="M 15.330075 486.64081 L 27.95074 486.64081 C 28.72601 486.64081 29.375073 486.909181 29.915958 487.445923 C 30.456844 488.000557 30.727287 488.644648 30.727287 489.413979 L 30.727287 495.980128 C 30.727287 496.749459 30.456844 497.411442 29.915958 497.948184 C 29.375073 498.484927 28.72601 498.753298 27.95074 498.753298 L 15.330075 498.753298 C 14.554805 498.753298 13.905743 498.484927 13.364857 497.948184 C 12.823971 497.411442 12.553529 496.749459 12.553529 495.980128 L 12.553529 489.413979 C 12.553529 488.644648 12.823971 488.000557 13.364857 487.445923 C 13.905743 486.909181 14.554805 486.64081 15.330075 486.64081" stroke="#000"/><path stroke-linecap="round" transform="matrix(0 .21666 -.21833 0 233.225 134.624)" fill="#FFF" stroke-linejoin="round" d="M 15.330075 505.963538 L 27.95074 505.963538 C 28.72601 505.963538 29.375073 506.249801 29.915958 506.786543 C 30.456844 507.323286 30.727287 507.985268 30.727287 508.754599 L 30.727287 515.320748 C 30.727287 516.072188 30.456844 516.73417 29.915958 517.270912 C 29.375073 517.825546 28.72601 518.093918 27.95074 518.093918 L 15.330075 518.093918 C 14.554805 518.093918 13.905743 517.825546 13.364857 517.270912 C 12.823971 516.73417 12.553529 516.072188 12.553529 515.320748 L 12.553529 508.754599 C 12.553529 507.985268 12.823971 507.323286 13.364857 506.786543 C 13.905743 506.249801 14.554805 505.963538 15.330075 505.963538" stroke="#000"/><path stroke-linecap="round" transform="matrix(0 .21666 -.21833 0 233.225 134.624)" fill="#FFF" stroke-linejoin="round" d="M 15.330075 525.304158 L 27.95074 525.304158 C 28.72601 525.304158 29.375073 525.572529 29.915958 526.127163 C 30.456844 526.663905 30.727287 527.325888 30.727287 528.095219 L 30.727287 534.661368 C 30.727287 535.412807 30.456844 536.07479 29.915958 536.611532 C 29.375073 537.166166 28.72601 537.434537 27.95074 537.434537 L 15.330075 537.434537 C 14.554805 537.434537 13.905743 537.166166 13.364857 536.611532 C 12.823971 536.07479 12.553529 535.412807 12.553529 534.661368 L 12.553529 528.095219 C 12.553529 527.325888 12.823971 526.663905 13.364857 526.127163 C 13.905743 525.572529 14.554805 525.304158 15.330075 525.304158" stroke="#000"/><path stroke-linecap="round" transform="matrix(0 .21666 -.21833 0 233.225 134.624)" fill="#FFF" stroke-linejoin="round" d="M 15.330075 544.644778 L 27.95074 544.644778 C 28.72601 544.644778 29.375073 544.913149 29.915958 545.467783 C 30.456844 546.004525 30.727287 546.666508 30.727287 547.435838 L 30.727287 554.001988 C 30.727287 554.753427 30.456844 555.41541 29.915958 555.952152 C 29.375073 556.506786 28.72601 556.775157 27.95074 556.775157 L 15.330075 556.775157 C 14.554805 556.775157 13.905743 556.506786 13.364857 555.952152 C 12.823971 555.41541 12.553529 554.753427 12.553529 554.001988 L 12.553529 547.435838 C 12.553529 546.666508 12.823971 546.004525 13.364857 545.467783 C 13.905743 544.913149 14.554805 544.644778 15.330075 544.644778" stroke="#000"/><path stroke-linecap="round" transform="matrix(0 .21666 -.21833 0 233.225 134.624)" fill="#FFF" stroke-linejoin="round" d="M 15.330075 563.985397 L 27.95074 563.985397 C 28.72601 563.985397 29.375073 564.253769 29.915958 564.790511 C 30.456844 565.327254 30.727287 565.989236 30.727287 566.758567 L 30.727287 573.324716 C 30.727287 574.094047 30.456844 574.738138 29.915958 575.292772 C 29.375073 575.829514 28.72601 576.097885 27.95074 576.097885 L 15.330075 576.097885 C 14.554805 576.097885 13.905743 575.829514 13.364857 575.292772 C 12.823971 574.738138 12.553529 574.094047 12.553529 573.324716 L 12.553529 566.758567 C 12.553529 565.989236 12.823971 565.327254 13.364857 564.790511 C 13.905743 564.253769 14.554805 563.985397 15.330075 563.985397" stroke="#000"/><path stroke-linecap="round" transform="matrix(0 .21666 -.21833 0 233.225 134.624)" fill="#FFF" stroke-linejoin="round" d="M 15.330075 583.326017 L 27.95074 583.326017 C 28.72601 583.326017 29.375073 583.594388 29.915958 584.131131 C 30.456844 584.667873 30.727287 585.329856 30.727287 586.099186 L 30.727287 592.665336 C 30.727287 593.434667 30.456844 594.078758 29.915958 594.633392 C 29.375073 595.170134 28.72601 595.438505 27.95074 595.438505 L 15.330075 595.438505 C 14.554805 595.438505 13.905743 595.170134 13.364857 594.633392 C 12.823971 594.078758 12.553529 593.434667 12.553529 592.665336 L 12.553529 586.099186 C 12.553529 585.329856 12.823971 584.667873 13.364857 584.131131 C 13.905743 583.594388 14.554805 583.326017 15.330075 583.326017" stroke="#000"/><path stroke-linecap="round" transform="matrix(0 .21666 -.21833 0 233.225 134.624)" fill="#FFF" stroke-linejoin="round" d="M 15.330075 602.666637 L 27.95074 602.666637 C 28.72601 602.666637 29.375073 602.935008 29.915958 603.471751 C 30.456844 604.008493 30.727287 604.670475 30.727287 605.439806 L 30.727287 612.005956 C 30.727287 612.775286 30.456844 613.419377 29.915958 613.974011 C 29.375073 614.510754 28.72601 614.779125 27.95074 614.779125 L 15.330075 614.779125 C 14.554805 614.779125 13.905743 614.510754 13.364857 613.974011 C 12.823971 613.419377 12.553529 612.775286 12.553529 612.005956 L 12.553529 605.439806 C 12.553529 604.670475 12.823971 604.008493 13.364857 603.471751 C 13.905743 602.935008 14.554805 602.666637 15.330075 602.666637" stroke="#000"/><path stroke-linecap="round" transform="matrix(0 .21666 -.21833 0 233.225 134.624)" fill="#FFF" stroke-linejoin="round" d="M 15.330075 622.007257 L 27.95074 622.007257 C 28.72601 622.007257 29.375073 622.275628 29.915958 622.81237 C 30.456844 623.349113 30.727287 624.011095 30.727287 624.780426 L 30.727287 631.346575 C 30.727287 632.115906 30.456844 632.759997 29.915958 633.314631 C 29.375073 633.851373 28.72601 634.119745 27.95074 634.119745 L 15.330075 634.119745 C 14.554805 634.119745 13.905743 633.851373 13.364857 633.314631 C 12.823971 632.759997 12.553529 632.115906 12.553529 631.346575 L 12.553529 624.780426 C 12.553529 624.011095 12.823971 623.349113 13.364857 622.81237 C 13.905743 622.275628 14.554805 622.007257 15.330075 622.007257" stroke="#000"/><path stroke-linecap="round" transform="matrix(0 .21666 -.21833 0 233.225 134.624)" fill="#FFF" stroke-linejoin="round" d="M 15.330075 641.329985 L 27.95074 641.329985 C 28.72601 641.329985 29.375073 641.598356 29.915958 642.135099 C 30.456844 642.689733 30.727287 643.333823 30.727287 644.103154 L 30.727287 650.669304 C 30.727287 651.438635 30.456844 652.100617 29.915958 652.637359 C 29.375073 653.174102 28.72601 653.460364 27.95074 653.460364 L 15.330075 653.460364 C 14.554805 653.460364 13.905743 653.174102 13.364857 652.637359 C 12.823971 652.100617 12.553529 651.438635 12.553529 650.669304 L 12.553529 644.103154 C 12.553529 643.333823 12.823971 642.689733 13.364857 642.135099 C 13.905743 641.598356 14.554805 641.329985 15.330075 641.329985" stroke="#000"/><path stroke-linecap="round" transform="matrix(0 .21666 -.21833 0 233.225 134.624)" fill="#FFF" stroke-linejoin="round" d="M 15.330075 660.670605 L 27.95074 660.670605 C 28.72601 660.670605 29.375073 660.938976 29.915958 661.475718 C 30.456844 662.030352 30.727287 662.674443 30.727287 663.443774 L 30.727287 670.009923 C 30.727287 670.779254 30.456844 671.441237 29.915958 671.977979 C 29.375073 672.514722 28.72601 672.783093 27.95074 672.783093 L 15.330075 672.783093 C 14.554805 672.783093 13.905743 672.514722 13.364857 671.977979 C 12.823971 671.441237 12.553529 670.779254 12.553529 670.009923 L 12.553529 663.443774 C 12.553529 662.674443 12.823971 662.030352 13.364857 661.475718 C 13.905743 660.938976 14.554805 660.670605 15.330075 660.670605" stroke="#000"/><path stroke-linecap="round" transform="matrix(0 .21666 -.21833 0 233.225 134.624)" fill="#FFF" stroke-linejoin="round" d="M 15.330075 680.011225 L 27.95074 680.011225 C 28.72601 680.011225 29.375073 680.279596 29.915958 680.816338 C 30.456844 681.370972 30.727287 682.015063 30.727287 682.784394 L 30.727287 689.350543 C 30.727287 690.119874 30.456844 690.781856 29.915958 691.318599 C 29.375073 691.855341 28.72601 692.123713 27.95074 692.123713 L 15.330075 692.123713 C 14.554805 692.123713 13.905743 691.855341 13.364857 691.318599 C 12.823971 690.781856 12.553529 690.119874 12.553529 689.350543 L 12.553529 682.784394 C 12.553529 682.015063 12.823971 681.370972 13.364857 680.816338 C 13.905743 680.279596 14.554805 680.011225 15.330075 680.011225" stroke="#000"/><path stroke-linecap="round" transform="matrix(0 .21666 -.21833 0 233.225 134.624)" fill="#FFF" stroke-linejoin="round" d="M 15.330075 699.333953 L 27.95074 699.333953 C 28.72601 699.333953 29.375073 699.602324 29.915958 700.156958 C 30.456844 700.6937 30.727287 701.355683 30.727287 702.125014 L 30.727287 708.691163 C 30.727287 709.442602 30.456844 710.104585 29.915958 710.641327 C 29.375073 711.195961 28.72601 711.464332 27.95074 711.464332 L 15.330075 711.464332 C 14.554805 711.464332 13.905743 711.195961 13.364857 710.641327 C 12.823971 710.104585 12.553529 709.442602 12.553529 708.691163 L 12.553529 702.125014 C 12.553529 701.355683 12.823971 700.6937 13.364857 700.156958 C 13.905743 699.620215 14.554805 699.333953 15.330075 699.333953" stroke="#000"/><path stroke-linecap="round" transform="matrix(0 .21666 -.21833 0 233.225 134.624)" fill="#FFF" stroke-linejoin="round" d="M 15.330075 718.674573 L 27.95074 718.674573 C 28.72601 718.674573 29.375073 718.942944 29.915958 719.497578 C 30.456844 720.03432 30.727287 720.696303 30.727287 721.465633 L 30.727287 728.031783 C 30.727287 728.783222 30.456844 729.445205 29.915958 729.981947 C 29.375073 730.536581 28.72601 730.804952 27.95074 730.804952 L 15.330075 730.804952 C 14.554805 730.804952 13.905743 730.536581 13.364857 729.981947 C 12.823971 729.445205 12.553529 728.783222 12.553529 728.031783 L 12.553529 721.465633 C 12.553529 720.696303 12.823971 720.03432 13.364857 719.497578 C 13.905743 718.942944 14.554805 718.674573 15.330075 718.674573" stroke="#000"/><path stroke-linecap="round" transform="matrix(0 .21666 -.21833 0 233.225 134.624)" fill="#FFF" stroke-linejoin="round" d="M 15.330075 738.015192 L 27.95074 738.015192 C 28.72601 738.015192 29.375073 738.283564 29.915958 738.838197 C 30.456844 739.37494 30.727287 740.036922 30.727287 740.806253 L 30.727287 747.372402 C 30.727287 748.123842 30.456844 748.785824 29.915958 749.322567 C 29.375073 749.877201 28.72601 750.145572 27.95074 750.145572 L 15.330075 750.145572 C 14.554805 750.145572 13.905743 749.877201 13.364857 749.322567 C 12.823971 748.785824 12.553529 748.123842 12.553529 747.372402 L 12.553529 740.806253 C 12.553529 740.036922 12.823971 739.37494 13.364857 738.838197 C 13.905743 738.283564 14.554805 738.015192 15.330075 738.015192" stroke="#000"/><g clip-path="url(#l)"><path stroke-linecap="round" transform="matrix(0 .21666 -.21833 0 200.225 152.253)" stroke-linejoin="round" d="M -216.186561 38.351236 L -216.186561 604.059891 L -183.877658 604.059891 L -183.877658 594.935269 L -108.099577 594.935269 L -108.099577 604.059891 L -75.790674 604.059891 L -75.790674 38.351236 L -108.099577 38.351236 L -108.099577 47.440075 L -183.877658 47.440075 L -183.877658 38.351236 Z M -216.186561 38.351236" stroke="#000" stroke-width="1.094"/></g><g clip-path="url(#m)"><path stroke-linecap="round" transform="matrix(0 .21666 -.21833 0 233.998 129.454)" fill="#FFF" stroke-linejoin="round" d="M -78.124836 209.965475 L -3.374438 209.965475 L -3.374438 307.938864 L -78.124836 307.938864 Z M -78.124836 209.965475" stroke="#000"/></g><g clip-path="url(#n)"><path stroke-linecap="round" transform="matrix(0 .21666 -.21833 0 233.998 129.454)" fill="#FFF" stroke-linejoin="round" d="M -78.124836 318.924193 L -3.374438 318.924193 L -3.374438 416.915474 L -78.124836 416.915474 Z M -78.124836 318.924193" stroke="#000"/></g><g clip-path="url(#o)"><path stroke-linecap="round" transform="matrix(0 .21666 -.21833 0 233.998 129.454)" fill="#FFF" stroke-linejoin="round" d="M -78.124836 427.900802 L -3.374438 427.900802 L -3.374438 525.892083 L -78.124836 525.892083 Z M -78.124836 427.900802" stroke="#000"/></g><g clip-path="url(#p)"><path stroke-linecap="round" transform="matrix(0 .21666 -.21833 0 233.998 129.454)" fill="#FFF" stroke-linejoin="round" d="M -78.124836 536.877412 L -3.374438 536.877412 L -3.374438 634.850801 L -78.124836 634.850801 Z M -78.124836 536.877412" stroke="#000"/></g><g clip-path="url(#q)"><path fill="#FFF" d="M 92.992188 112.527344 L 92.992188 128.722656 L 71.597656 128.722656 L 71.597656 112.527344 Z M 92.992188 112.527344"/></g><g clip-path="url(#r)"><path stroke-linecap="round" transform="matrix(0 .21666 -.21833 0 233.998 129.454)" fill="none" stroke-linejoin="round" d="M -78.124836 645.83613 L -3.374438 645.83613 L -3.374438 743.827411 L -78.124836 743.827411 Z M -78.124836 645.83613" stroke="#000"/></g><path stroke-linecap="round" transform="matrix(0 .21666 -.21833 0 233.225 104.117)" fill="#FFF" stroke-linejoin="round" d="M 15.325684 196.585188 L 27.964379 196.585188 C 28.721619 196.585188 29.370682 196.853559 29.929597 197.390301 C 30.470483 197.944935 30.740925 198.589026 30.740925 199.358357 L 30.740925 205.924506 C 30.740925 206.693837 30.470483 207.337928 29.929597 207.892562 C 29.370682 208.429304 28.721619 208.697676 27.964379 208.697676 L 15.325684 208.697676 C 14.568444 208.697676 13.901352 208.429304 13.360466 207.892562 C 12.819581 207.337928 12.549138 206.693837 12.549138 205.924506 L 12.549138 199.358357 C 12.549138 198.589026 12.819581 197.944935 13.360466 197.390301 C 13.901352 196.853559 14.568444 196.585188 15.325684 196.585188" stroke="#000"/><path stroke-linecap="round" transform="matrix(0 .21666 -.21833 0 233.225 104.117)" fill="#FFF" stroke-linejoin="round" d="M 15.325684 215.907916 L 27.964379 215.907916 C 28.721619 215.907916 29.370682 216.176287 29.929597 216.730921 C 30.470483 217.267664 30.740925 217.929646 30.740925 218.681085 L 30.740925 225.247235 C 30.740925 226.016566 30.470483 226.678548 29.929597 227.21529 C 29.370682 227.752033 28.721619 228.038295 27.964379 228.038295 L 15.325684 228.038295 C 14.568444 228.038295 13.901352 227.752033 13.360466 227.21529 C 12.819581 226.678548 12.549138 226.016566 12.549138 225.247235 L 12.549138 218.681085 C 12.549138 217.929646 12.819581 217.267664 13.360466 216.730921 C 13.901352 216.176287 14.568444 215.907916 15.325684 215.907916" stroke="#000"/><path stroke-linecap="round" transform="matrix(0 .21666 -.21833 0 233.225 104.117)" fill="#FFF" stroke-linejoin="round" d="M 15.325684 235.248536 L 27.964379 235.248536 C 28.721619 235.248536 29.370682 235.516907 29.929597 236.071541 C 30.470483 236.608283 30.740925 237.252374 30.740925 238.021705 L 30.740925 244.587854 C 30.740925 245.357185 30.470483 246.019168 29.929597 246.55591 C 29.370682 247.092653 28.721619 247.378915 27.964379 247.378915 L 15.325684 247.378915 C 14.568444 247.378915 13.901352 247.092653 13.360466 246.55591 C 12.819581 246.019168 12.549138 245.357185 12.549138 244.587854 L 12.549138 238.021705 C 12.549138 237.252374 12.819581 236.608283 13.360466 236.071541 C 13.901352 235.516907 14.568444 235.248536 15.325684 235.248536" stroke="#000"/><path stroke-linecap="round" transform="matrix(0 .21666 -.21833 0 233.225 104.117)" fill="#FFF" stroke-linejoin="round" d="M 15.325684 254.589156 L 27.964379 254.589156 C 28.721619 254.589156 29.370682 254.857527 29.929597 255.412161 C 30.470483 255.948903 30.740925 256.592994 30.740925 257.362325 L 30.740925 263.928474 C 30.740925 264.697805 30.470483 265.359787 29.929597 265.89653 C 29.370682 266.433272 28.721619 266.719535 27.964379 266.719535 L 15.325684 266.719535 C 14.568444 266.719535 13.901352 266.433272 13.360466 265.89653 C 12.819581 265.359787 12.549138 264.697805 12.549138 263.928474 L 12.549138 257.362325 C 12.549138 256.592994 12.819581 255.948903 13.360466 255.412161 C 13.901352 254.857527 14.568444 254.589156 15.325684 254.589156" stroke="#000"/><path stroke-linecap="round" transform="matrix(0 .21666 -.21833 0 233.225 104.117)" fill="#FFF" stroke-linejoin="round" d="M 15.325684 273.929775 L 27.964379 273.929775 C 28.721619 273.929775 29.370682 274.198146 29.929597 274.734889 C 30.470483 275.289523 30.740925 275.933614 30.740925 276.702945 L 30.740925 283.269094 C 30.740925 284.038425 30.470483 284.700407 29.929597 285.23715 C 29.370682 285.773892 28.721619 286.060155 27.964379 286.060155 L 15.325684 286.060155 C 14.568444 286.060155 13.901352 285.773892 13.360466 285.23715 C 12.819581 284.700407 12.549138 284.038425 12.549138 283.269094 L 12.549138 276.702945 C 12.549138 275.933614 12.819581 275.289523 13.360466 274.734889 C 13.901352 274.198146 14.568444 273.929775 15.325684 273.929775" stroke="#000"/><path stroke-linecap="round" transform="matrix(0 .21666 -.21833 0 233.225 104.117)" fill="#FFF" stroke-linejoin="round" d="M 15.325684 293.252504 L 27.964379 293.252504 C 28.721619 293.252504 29.370682 293.538766 29.929597 294.075509 C 30.470483 294.612251 30.740925 295.274234 30.740925 296.043564 L 30.740925 302.609714 C 30.740925 303.379045 30.470483 304.023136 29.929597 304.559878 C 29.370682 305.114512 28.721619 305.382883 27.964379 305.382883 L 15.325684 305.382883 C 14.568444 305.382883 13.901352 305.114512 13.360466 304.559878 C 12.819581 304.023136 12.549138 303.379045 12.549138 302.609714 L 12.549138 296.043564 C 12.549138 295.274234 12.819581 294.612251 13.360466 294.075509 C 13.901352 293.538766 14.568444 293.252504 15.325684 293.252504" stroke="#000"/><path stroke-linecap="round" transform="matrix(0 .21666 -.21833 0 233.225 104.117)" fill="#FFF" stroke-linejoin="round" d="M 15.325684 312.593123 L 27.964379 312.593123 C 28.721619 312.593123 29.370682 312.879386 29.929597 313.416128 C 30.470483 313.952871 30.740925 314.614853 30.740925 315.384184 L 30.740925 321.950333 C 30.740925 322.719664 30.470483 323.363755 29.929597 323.900498 C 29.370682 324.455132 28.721619 324.723503 27.964379 324.723503 L 15.325684 324.723503 C 14.568444 324.723503 13.901352 324.455132 13.360466 323.900498 C 12.819581 323.363755 12.549138 322.719664 12.549138 321.950333 L 12.549138 315.384184 C 12.549138 314.614853 12.819581 313.952871 13.360466 313.416128 C 13.901352 312.879386 14.568444 312.593123 15.325684 312.593123" stroke="#000"/><path stroke-linecap="round" transform="matrix(0 .21666 -.21833 0 233.225 104.117)" fill="#FFF" stroke-linejoin="round" d="M 15.325684 331.933743 L 27.964379 331.933743 C 28.721619 331.933743 29.370682 332.220006 29.929597 332.756748 C 30.470483 333.293491 30.740925 333.955473 30.740925 334.724804 L 30.740925 341.290953 C 30.740925 342.042393 30.470483 342.704375 29.929597 343.241117 C 29.370682 343.795751 28.721619 344.064123 27.964379 344.064123 L 15.325684 344.064123 C 14.568444 344.064123 13.901352 343.795751 13.360466 343.241117 C 12.819581 342.704375 12.549138 342.042393 12.549138 341.290953 L 12.549138 334.724804 C 12.549138 333.955473 12.819581 333.293491 13.360466 332.756748 C 13.901352 332.220006 14.568444 331.933743 15.325684 331.933743" stroke="#000"/><path stroke-linecap="round" transform="matrix(0 .21666 -.21833 0 233.225 104.117)" fill="#FFF" stroke-linejoin="round" d="M 15.325684 351.274363 L 27.964379 351.274363 C 28.721619 351.274363 29.370682 351.542734 29.929597 352.097368 C 30.470483 352.63411 30.740925 353.296093 30.740925 354.065424 L 30.740925 360.631573 C 30.740925 361.383012 30.470483 362.044995 29.929597 362.581737 C 29.370682 363.136371 28.721619 363.404742 27.964379 363.404742 L 15.325684 363.404742 C 14.568444 363.404742 13.901352 363.136371 13.360466 362.581737 C 12.819581 362.044995 12.549138 361.383012 12.549138 360.631573 L 12.549138 354.065424 C 12.549138 353.296093 12.819581 352.63411 13.360466 352.097368 C 13.901352 351.542734 14.568444 351.274363 15.325684 351.274363" stroke="#000"/><path stroke-linecap="round" transform="matrix(0 .21666 -.21833 0 233.225 104.117)" fill="#FFF" stroke-linejoin="round" d="M 15.325684 370.614983 L 27.964379 370.614983 C 28.721619 370.614983 29.370682 370.883354 29.929597 371.420096 C 30.470483 371.97473 30.740925 372.618821 30.740925 373.388152 L 30.740925 379.954301 C 30.740925 380.723632 30.470483 381.367723 29.929597 381.922357 C 29.370682 382.459099 28.721619 382.727471 27.964379 382.727471 L 15.325684 382.727471 C 14.568444 382.727471 13.901352 382.459099 13.360466 381.922357 C 12.819581 381.367723 12.549138 380.723632 12.549138 379.954301 L 12.549138 373.388152 C 12.549138 372.618821 12.819581 371.97473 13.360466 371.420096 C 13.901352 370.883354 14.568444 370.614983 15.325684 370.614983" stroke="#000"/><path stroke-linecap="round" transform="matrix(0 .21666 -.21833 0 233.225 104.117)" fill="#FFF" stroke-linejoin="round" d="M 15.325684 389.955602 L 27.964379 389.955602 C 28.721619 389.955602 29.370682 390.223974 29.929597 390.760716 C 30.470483 391.297459 30.740925 391.959441 30.740925 392.728772 L 30.740925 399.294921 C 30.740925 400.064252 30.470483 400.708343 29.929597 401.262977 C 29.370682 401.799719 28.721619 402.06809 27.964379 402.06809 L 15.325684 402.06809 C 14.568444 402.06809 13.901352 401.799719 13.360466 401.262977 C 12.819581 400.708343 12.549138 400.064252 12.549138 399.294921 L 12.549138 392.728772 C 12.549138 391.959441 12.819581 391.297459 13.360466 390.760716 C 13.901352 390.223974 14.568444 389.955602 15.325684 389.955602" stroke="#000"/><path stroke-linecap="round" transform="matrix(0 .21666 -.21833 0 233.225 104.117)" fill="#FFF" stroke-linejoin="round" d="M 15.325684 409.296222 L 27.964379 409.296222 C 28.721619 409.296222 29.370682 409.564593 29.929597 410.101336 C 30.470483 410.638078 30.740925 411.300061 30.740925 412.069391 L 30.740925 418.635541 C 30.740925 419.404872 30.470483 420.048963 29.929597 420.603597 C 29.370682 421.140339 28.721619 421.40871 27.964379 421.40871 L 15.325684 421.40871 C 14.568444 421.40871 13.901352 421.140339 13.360466 420.603597 C 12.819581 420.048963 12.549138 419.404872 12.549138 418.635541 L 12.549138 412.069391 C 12.549138 411.300061 12.819581 410.638078 13.360466 410.101336 C 13.901352 409.564593 14.568444 409.296222 15.325684 409.296222" stroke="#000"/><path stroke-linecap="round" transform="matrix(0 .21666 -.21833 0 233.225 104.117)" fill="#FFF" stroke-linejoin="round" d="M 15.325684 428.61895 L 27.964379 428.61895 C 28.721619 428.61895 29.370682 428.887322 29.929597 429.441956 C 30.470483 429.978698 30.740925 430.622789 30.740925 431.39212 L 30.740925 437.958269 C 30.740925 438.7276 30.470483 439.389582 29.929597 439.926325 C 29.370682 440.463067 28.721619 440.74933 27.964379 440.74933 L 15.325684 440.74933 C 14.568444 440.74933 13.901352 440.463067 13.360466 439.926325 C 12.819581 439.389582 12.549138 438.7276 12.549138 437.958269 L 12.549138 431.39212 C 12.549138 430.622789 12.819581 429.978698 13.360466 429.441956 C 13.901352 428.887322 14.568444 428.61895 15.325684 428.61895" stroke="#000"/><path stroke-linecap="round" transform="matrix(0 .21666 -.21833 0 233.225 104.117)" fill="#FFF" stroke-linejoin="round" d="M 15.325684 447.95957 L 27.964379 447.95957 C 28.721619 447.95957 29.370682 448.227941 29.929597 448.764684 C 30.470483 449.319318 30.740925 449.963409 30.740925 450.73274 L 30.740925 457.298889 C 30.740925 458.06822 30.470483 458.730202 29.929597 459.266945 C 29.370682 459.803687 28.721619 460.08995 27.964379 460.08995 L 15.325684 460.08995 C 14.568444 460.08995 13.901352 459.803687 13.360466 459.266945 C 12.819581 458.730202 12.549138 458.06822 12.549138 457.298889 L 12.549138 450.73274 C 12.549138 449.963409 12.819581 449.319318 13.360466 448.764684 C 13.901352 448.227941 14.568444 447.95957 15.325684 447.95957" stroke="#000"/><path stroke-linecap="round" transform="matrix(0 .21666 -.21833 0 233.225 104.117)" fill="#FFF" stroke-linejoin="round" d="M 15.325684 467.30019 L 27.964379 467.30019 C 28.721619 467.30019 29.370682 467.568561 29.929597 468.105304 C 30.470483 468.659938 30.740925 469.304029 30.740925 470.073359 L 30.740925 476.639509 C 30.740925 477.40884 30.470483 478.070822 29.929597 478.607564 C 29.370682 479.144307 28.721619 479.430569 27.964379 479.430569 L 15.325684 479.430569 C 14.568444 479.430569 13.901352 479.144307 13.360466 478.607564 C 12.819581 478.070822 12.549138 477.40884 12.549138 476.639509 L 12.549138 470.073359 C 12.549138 469.304029 12.819581 468.659938 13.360466 468.105304 C 13.901352 467.568561 14.568444 467.30019 15.325684 467.30019" stroke="#000"/><path stroke-linecap="round" transform="matrix(0 .21666 -.21833 0 233.225 104.117)" fill="#FFF" stroke-linejoin="round" d="M 15.325684 486.64081 L 27.964379 486.64081 C 28.721619 486.64081 29.370682 486.909181 29.929597 487.445923 C 30.470483 488.000557 30.740925 488.644648 30.740925 489.413979 L 30.740925 495.980128 C 30.740925 496.749459 30.470483 497.411442 29.929597 497.948184 C 29.370682 498.484927 28.721619 498.753298 27.964379 498.753298 L 15.325684 498.753298 C 14.568444 498.753298 13.901352 498.484927 13.360466 497.948184 C 12.819581 497.411442 12.549138 496.749459 12.549138 495.980128 L 12.549138 489.413979 C 12.549138 488.644648 12.819581 488.000557 13.360466 487.445923 C 13.901352 486.909181 14.568444 486.64081 15.325684 486.64081" stroke="#000"/><path stroke-linecap="round" transform="matrix(0 .21666 -.21833 0 233.225 104.117)" fill="#FFF" stroke-linejoin="round" d="M 15.325684 505.963538 L 27.964379 505.963538 C 28.721619 505.963538 29.370682 506.249801 29.929597 506.786543 C 30.470483 507.323286 30.740925 507.985268 30.740925 508.754599 L 30.740925 515.320748 C 30.740925 516.072188 30.470483 516.73417 29.929597 517.270912 C 29.370682 517.825546 28.721619 518.093918 27.964379 518.093918 L 15.325684 518.093918 C 14.568444 518.093918 13.901352 517.825546 13.360466 517.270912 C 12.819581 516.73417 12.549138 516.072188 12.549138 515.320748 L 12.549138 508.754599 C 12.549138 507.985268 12.819581 507.323286 13.360466 506.786543 C 13.901352 506.249801 14.568444 505.963538 15.325684 505.963538" stroke="#000"/><path stroke-linecap="round" transform="matrix(0 .21666 -.21833 0 233.225 104.117)" fill="#FFF" stroke-linejoin="round" d="M 15.325684 525.304158 L 27.964379 525.304158 C 28.721619 525.304158 29.370682 525.572529 29.929597 526.127163 C 30.470483 526.663905 30.740925 527.325888 30.740925 528.095219 L 30.740925 534.661368 C 30.740925 535.412807 30.470483 536.07479 29.929597 536.611532 C 29.370682 537.166166 28.721619 537.434537 27.964379 537.434537 L 15.325684 537.434537 C 14.568444 537.434537 13.901352 537.166166 13.360466 536.611532 C 12.819581 536.07479 12.549138 535.412807 12.549138 534.661368 L 12.549138 528.095219 C 12.549138 527.325888 12.819581 526.663905 13.360466 526.127163 C 13.901352 525.572529 14.568444 525.304158 15.325684 525.304158" stroke="#000"/><path stroke-linecap="round" transform="matrix(0 .21666 -.21833 0 233.225 104.117)" fill="#FFF" stroke-linejoin="round" d="M 15.325684 544.644778 L 27.964379 544.644778 C 28.721619 544.644778 29.370682 544.913149 29.929597 545.467783 C 30.470483 546.004525 30.740925 546.666508 30.740925 547.435838 L 30.740925 554.001988 C 30.740925 554.753427 30.470483 555.41541 29.929597 555.952152 C 29.370682 556.506786 28.721619 556.775157 27.964379 556.775157 L 15.325684 556.775157 C 14.568444 556.775157 13.901352 556.506786 13.360466 555.952152 C 12.819581 555.41541 12.549138 554.753427 12.549138 554.001988 L 12.549138 547.435838 C 12.549138 546.666508 12.819581 546.004525 13.360466 545.467783 C 13.901352 544.913149 14.568444 544.644778 15.325684 544.644778" stroke="#000"/><path stroke-linecap="round" transform="matrix(0 .21666 -.21833 0 233.225 104.117)" fill="#FFF" stroke-linejoin="round" d="M 15.325684 563.985397 L 27.964379 563.985397 C 28.721619 563.985397 29.370682 564.253769 29.929597 564.790511 C 30.470483 565.327254 30.740925 565.989236 30.740925 566.758567 L 30.740925 573.324716 C 30.740925 574.094047 30.470483 574.738138 29.929597 575.292772 C 29.370682 575.829514 28.721619 576.097885 27.964379 576.097885 L 15.325684 576.097885 C 14.568444 576.097885 13.901352 575.829514 13.360466 575.292772 C 12.819581 574.738138 12.549138 574.094047 12.549138 573.324716 L 12.549138 566.758567 C 12.549138 565.989236 12.819581 565.327254 13.360466 564.790511 C 13.901352 564.253769 14.568444 563.985397 15.325684 563.985397" stroke="#000"/><path stroke-linecap="round" transform="matrix(0 .21666 -.21833 0 233.225 104.117)" fill="#FFF" stroke-linejoin="round" d="M 15.325684 583.326017 L 27.964379 583.326017 C 28.721619 583.326017 29.370682 583.594388 29.929597 584.131131 C 30.470483 584.667873 30.740925 585.329856 30.740925 586.099186 L 30.740925 592.665336 C 30.740925 593.434667 30.470483 594.078758 29.929597 594.633392 C 29.370682 595.170134 28.721619 595.438505 27.964379 595.438505 L 15.325684 595.438505 C 14.568444 595.438505 13.901352 595.170134 13.360466 594.633392 C 12.819581 594.078758 12.549138 593.434667 12.549138 592.665336 L 12.549138 586.099186 C 12.549138 585.329856 12.819581 584.667873 13.360466 584.131131 C 13.901352 583.594388 14.568444 583.326017 15.325684 583.326017" stroke="#000"/><path stroke-linecap="round" transform="matrix(0 .21666 -.21833 0 233.225 104.117)" fill="#FFF" stroke-linejoin="round" d="M 15.325684 602.666637 L 27.964379 602.666637 C 28.721619 602.666637 29.370682 602.935008 29.929597 603.471751 C 30.470483 604.008493 30.740925 604.670475 30.740925 605.439806 L 30.740925 612.005956 C 30.740925 612.775286 30.470483 613.419377 29.929597 613.974011 C 29.370682 614.510754 28.721619 614.779125 27.964379 614.779125 L 15.325684 614.779125 C 14.568444 614.779125 13.901352 614.510754 13.360466 613.974011 C 12.819581 613.419377 12.549138 612.775286 12.549138 612.005956 L 12.549138 605.439806 C 12.549138 604.670475 12.819581 604.008493 13.360466 603.471751 C 13.901352 602.935008 14.568444 602.666637 15.325684 602.666637" stroke="#000"/><path stroke-linecap="round" transform="matrix(0 .21666 -.21833 0 233.225 104.117)" fill="#FFF" stroke-linejoin="round" d="M 15.325684 622.007257 L 27.964379 622.007257 C 28.721619 622.007257 29.370682 622.275628 29.929597 622.81237 C 30.470483 623.349113 30.740925 624.011095 30.740925 624.780426 L 30.740925 631.346575 C 30.740925 632.115906 30.470483 632.759997 29.929597 633.314631 C 29.370682 633.851373 28.721619 634.119745 27.964379 634.119745 L 15.325684 634.119745 C 14.568444 634.119745 13.901352 633.851373 13.360466 633.314631 C 12.819581 632.759997 12.549138 632.115906 12.549138 631.346575 L 12.549138 624.780426 C 12.549138 624.011095 12.819581 623.349113 13.360466 622.81237 C 13.901352 622.275628 14.568444 622.007257 15.325684 622.007257" stroke="#000"/><path stroke-linecap="round" transform="matrix(0 .21666 -.21833 0 233.225 104.117)" fill="#FFF" stroke-linejoin="round" d="M 15.325684 641.329985 L 27.964379 641.329985 C 28.721619 641.329985 29.370682 641.598356 29.929597 642.135099 C 30.470483 642.689733 30.740925 643.333823 30.740925 644.103154 L 30.740925 650.669304 C 30.740925 651.438635 30.470483 652.100617 29.929597 652.637359 C 29.370682 653.174102 28.721619 653.460364 27.964379 653.460364 L 15.325684 653.460364 C 14.568444 653.460364 13.901352 653.174102 13.360466 652.637359 C 12.819581 652.100617 12.549138 651.438635 12.549138 650.669304 L 12.549138 644.103154 C 12.549138 643.333823 12.819581 642.689733 13.360466 642.135099 C 13.901352 641.598356 14.568444 641.329985 15.325684 641.329985" stroke="#000"/><path stroke-linecap="round" transform="matrix(0 .21666 -.21833 0 233.225 104.117)" fill="#FFF" stroke-linejoin="round" d="M 15.325684 660.670605 L 27.964379 660.670605 C 28.721619 660.670605 29.370682 660.938976 29.929597 661.475718 C 30.470483 662.030352 30.740925 662.674443 30.740925 663.443774 L 30.740925 670.009923 C 30.740925 670.779254 30.470483 671.441237 29.929597 671.977979 C 29.370682 672.514722 28.721619 672.783093 27.964379 672.783093 L 15.325684 672.783093 C 14.568444 672.783093 13.901352 672.514722 13.360466 671.977979 C 12.819581 671.441237 12.549138 670.779254 12.549138 670.009923 L 12.549138 663.443774 C 12.549138 662.674443 12.819581 662.030352 13.360466 661.475718 C 13.901352 660.938976 14.568444 660.670605 15.325684 660.670605" stroke="#000"/><path stroke-linecap="round" transform="matrix(0 .21666 -.21833 0 233.225 104.117)" fill="#FFF" stroke-linejoin="round" d="M 15.325684 680.011225 L 27.964379 680.011225 C 28.721619 680.011225 29.370682 680.279596 29.929597 680.816338 C 30.470483 681.370972 30.740925 682.015063 30.740925 682.784394 L 30.740925 689.350543 C 30.740925 690.119874 30.470483 690.781856 29.929597 691.318599 C 29.370682 691.855341 28.721619 692.123713 27.964379 692.123713 L 15.325684 692.123713 C 14.568444 692.123713 13.901352 691.855341 13.360466 691.318599 C 12.819581 690.781856 12.549138 690.119874 12.549138 689.350543 L 12.549138 682.784394 C 12.549138 682.015063 12.819581 681.370972 13.360466 680.816338 C 13.901352 680.279596 14.568444 680.011225 15.325684 680.011225" stroke="#000"/><path stroke-linecap="round" transform="matrix(0 .21666 -.21833 0 233.225 104.117)" fill="#FFF" stroke-linejoin="round" d="M 15.325684 699.333953 L 27.964379 699.333953 C 28.721619 699.333953 29.370682 699.602324 29.929597 700.156958 C 30.470483 700.6937 30.740925 701.355683 30.740925 702.125014 L 30.740925 708.691163 C 30.740925 709.442602 30.470483 710.104585 29.929597 710.641327 C 29.370682 711.195961 28.721619 711.464332 27.964379 711.464332 L 15.325684 711.464332 C 14.568444 711.464332 13.901352 711.195961 13.360466 710.641327 C 12.819581 710.104585 12.549138 709.442602 12.549138 708.691163 L 12.549138 702.125014 C 12.549138 701.355683 12.819581 700.6937 13.360466 700.156958 C 13.901352 699.620215 14.568444 699.333953 15.325684 699.333953" stroke="#000"/><path stroke-linecap="round" transform="matrix(0 .21666 -.21833 0 233.225 104.117)" fill="#FFF" stroke-linejoin="round" d="M 15.325684 718.674573 L 27.964379 718.674573 C 28.721619 718.674573 29.370682 718.942944 29.929597 719.497578 C 30.470483 720.03432 30.740925 720.696303 30.740925 721.465633 L 30.740925 728.031783 C 30.740925 728.783222 30.470483 729.445205 29.929597 729.981947 C 29.370682 730.536581 28.721619 730.804952 27.964379 730.804952 L 15.325684 730.804952 C 14.568444 730.804952 13.901352 730.536581 13.360466 729.981947 C 12.819581 729.445205 12.549138 728.783222 12.549138 728.031783 L 12.549138 721.465633 C 12.549138 720.696303 12.819581 720.03432 13.360466 719.497578 C 13.901352 718.942944 14.568444 718.674573 15.325684 718.674573" stroke="#000"/><path stroke-linecap="round" transform="matrix(0 .21666 -.21833 0 233.225 104.117)" fill="#FFF" stroke-linejoin="round" d="M 15.325684 738.015192 L 27.964379 738.015192 C 28.721619 738.015192 29.370682 738.283564 29.929597 738.838197 C 30.470483 739.37494 30.740925 740.036922 30.740925 740.806253 L 30.740925 747.372402 C 30.740925 748.123842 30.470483 748.785824 29.929597 749.322567 C 29.370682 749.877201 28.721619 750.145572 27.964379 750.145572 L 15.325684 750.145572 C 14.568444 750.145572 13.901352 749.877201 13.360466 749.322567 C 12.819581 748.785824 12.549138 748.123842 12.549138 747.372402 L 12.549138 740.806253 C 12.549138 740.036922 12.819581 739.37494 13.360466 738.838197 C 13.901352 738.283564 14.568444 738.015192 15.325684 738.015192" stroke="#000"/><path stroke-linecap="round" transform="matrix(0 1.49544 -1.5 0 101.306 112.476)" fill="none" d="M 0.499074 0.000556232 L 20.068975 0.000556232" stroke="#FFF"/><path stroke-linecap="round" transform="matrix(0 1.49886 -1.5 0 89.114 111.044)" fill="none" d="M 0.499422 0.000452132 L 20.022105 0.000452132" stroke="#FFF"/><path stroke-linecap="round" transform="matrix(.00714 1.52044 -1.49998 .00704 124.994 110.757)" fill="none" d="M 0.49925 0.0012048 L 17.26557 0.000283013" stroke="#FFF"/><path stroke-linecap="round" transform="matrix(.01031 1.4897 -1.49996 .01038 145.731 111.724)" fill="none" d="M 0.49998 0.00120814 L 16.621158 0.0000662096" stroke="#FFF"/><path stroke-linecap="round" transform="matrix(-.01048 1.4897 -1.49996 -.01055 171.37 111.721)" fill="none" d="M 0.499102 0.000591377 L 16.625523 -0.0000470354" stroke="#FFF"/><path stroke-linecap="round" transform="matrix(0 1.5121 -1.5 0 191.088 109.032)" fill="none" d="M 0.500356 -0.00102813 L 19.839131 -0.00102813" stroke="#FFF"/><path stroke-linecap="round" transform="matrix(.00602 1.50064 -1.49999 .00602 69.127 111.046)" fill="none" d="M 0.50018 0.000764024 L 17.498156 -0.00128385" stroke="#FFF"/><g fill="#FFF"><g><g><path d="M 15.59375 -1.390625 C 15.070312 -1.015625 14.351562 -0.65625 13.4375 -0.3125 C 12.519531 0.0195312 11.515625 0.1875 10.421875 0.1875 C 8.585938 0.1875 6.984375 -0.210938 5.609375 -1.015625 C 4.242188 -1.816406 3.191406 -2.894531 2.453125 -4.25 C 1.710938 -5.601562 1.34375 -7.09375 1.34375 -8.71875 C 1.34375 -10.488281 1.710938 -12.070312 2.453125 -13.46875 C 3.191406 -14.863281 4.222656 -15.953125 5.546875 -16.734375 C 6.867188 -17.523438 8.375 -17.921875 10.0625 -17.921875 C 11.101562 -17.921875 12.066406 -17.78125 12.953125 -17.5 C 13.835938 -17.226562 14.617188 -16.882812 15.296875 -16.46875 L 14.171875 -13.8125 C 12.859375 -14.738281 11.519531 -15.203125 10.15625 -15.203125 C 9.113281 -15.203125 8.140625 -14.921875 7.234375 -14.359375 C 6.335938 -13.796875 5.617188 -13.03125 5.078125 -12.0625 C 4.546875 -11.101562 4.28125 -10.046875 4.28125 -8.890625 C 4.28125 -7.671875 4.523438 -6.578125 5.015625 -5.609375 C 5.515625 -4.648438 6.222656 -3.894531 7.140625 -3.34375 C 8.066406 -2.800781 9.128906 -2.53125 10.328125 -2.53125 C 11.191406 -2.53125 11.96875 -2.660156 12.65625 -2.921875 C 13.34375 -3.179688 13.921875 -3.515625 14.390625 -3.921875 Z M 15.59375 -1.390625" transform="translate(70.572 132.607)"/></g></g></g><g fill="#FFF"><g><g><path d="M 5.28125 -17.734375 L 5.28125 0 L 2.4375 0 L 2.4375 -17.734375 Z M 5.28125 -17.734375" transform="translate(91.224 132.607)"/></g></g></g><g fill="#FFF"><g><g><path d="M 18.09375 -17.734375 L 18.09375 0.640625 L 18.03125 0.640625 L 5.234375 -11.765625 L 5.3125 0 L 2.4375 0 L 2.4375 -18.34375 L 2.578125 -18.34375 L 15.328125 -5.796875 L 15.265625 -17.734375 Z M 18.09375 -17.734375" transform="translate(102.67 132.607)"/></g></g></g><g fill="#FFF"><g><g><path d="M 14.203125 -17.734375 L 14.203125 -15 L 5.28125 -15 L 5.28125 -10.28125 L 13.234375 -10.28125 L 13.234375 -7.546875 L 5.28125 -7.546875 L 5.28125 -2.734375 L 14.546875 -2.734375 L 14.546875 0 L 2.4375 0 L 2.4375 -17.734375 Z M 14.203125 -17.734375" transform="translate(126.95 132.607)"/></g></g></g><g fill="#FFF"><g><g><path d="M 20.34375 -18.359375 L 20.34375 0 L 17.515625 0 L 17.515625 -10.25 L 11.296875 -1.4375 L 11.25 -1.4375 L 5.1875 -9.84375 L 5.1875 0 L 2.4375 0 L 2.4375 -18.359375 L 2.453125 -18.359375 L 11.296875 -5.84375 L 20.296875 -18.359375 Z M 20.34375 -18.359375" transform="translate(146.7 132.607)"/></g></g></g><g fill="#FFF"><g><g><path d="M 11.546875 -4.171875 L 5.09375 -4.171875 L 3.390625 0 L 0.578125 0 L 8.421875 -18.46875 L 8.59375 -18.46875 L 16.4375 0 L 13.171875 0 Z M 10.59375 -6.59375 L 8.375 -12.203125 L 6.09375 -6.59375 Z M 10.59375 -6.59375" transform="translate(173.196 132.607)"/></g></g></g><g fill="#FFF"><g><g><path d="M 11.734375 -14.125 C 10.210938 -14.925781 8.859375 -15.328125 7.671875 -15.328125 C 6.796875 -15.328125 6.101562 -15.128906 5.59375 -14.734375 C 5.082031 -14.347656 4.828125 -13.8125 4.828125 -13.125 C 4.828125 -12.457031 5.144531 -11.898438 5.78125 -11.453125 C 6.425781 -11.015625 7.328125 -10.578125 8.484375 -10.140625 C 9.359375 -9.828125 10.109375 -9.472656 10.734375 -9.078125 C 11.359375 -8.679688 11.875 -8.140625 12.28125 -7.453125 C 12.6875 -6.773438 12.890625 -5.914062 12.890625 -4.875 C 12.890625 -3.925781 12.648438 -3.070312 12.171875 -2.3125 C 11.703125 -1.550781 11.019531 -0.941406 10.125 -0.484375 C 9.238281 -0.0351562 8.1875 0.1875 6.96875 0.1875 C 5.894531 0.1875 4.835938 0.0234375 3.796875 -0.296875 C 2.753906 -0.628906 1.828125 -1.09375 1.015625 -1.6875 L 2.296875 -3.890625 C 2.890625 -3.441406 3.597656 -3.066406 4.421875 -2.765625 C 5.242188 -2.460938 6.003906 -2.3125 6.703125 -2.3125 C 7.554688 -2.3125 8.304688 -2.519531 8.953125 -2.9375 C 9.609375 -3.351562 9.9375 -3.988281 9.9375 -4.84375 C 9.9375 -5.53125 9.664062 -6.097656 9.125 -6.546875 C 8.582031 -7.003906 7.820312 -7.421875 6.84375 -7.796875 C 5.832031 -8.171875 4.992188 -8.539062 4.328125 -8.90625 C 3.671875 -9.269531 3.101562 -9.78125 2.625 -10.4375 C 2.144531 -11.09375 1.90625 -11.914062 1.90625 -12.90625 C 1.90625 -14.351562 2.394531 -15.519531 3.375 -16.40625 C 4.351562 -17.289062 5.648438 -17.765625 7.265625 -17.828125 C 8.429688 -17.828125 9.457031 -17.691406 10.34375 -17.421875 C 11.226562 -17.160156 12.050781 -16.785156 12.8125 -16.296875 Z M 11.734375 -14.125" transform="translate(193.945 132.607)"/></g></g></g><g fill="#FFF"><g><g><path d="M 16.875 0.78125 L 12.6875 -9.796875 L 7.984375 0.828125 L 0.90625 -17.640625 L 4.21875 -17.640625 L 8.359375 -5.796875 L 11.296875 -13.34375 L 9.59375 -17.640625 L 12.40625 -17.640625 L 16.953125 -6.140625 L 20.75 -17.640625 L 23.796875 -17.640625 Z M 16.875 0.78125" transform="translate(211.845 132.607)"/></g></g></g><g fill="#FFF"><g><g><path d="M 5.28125 -17.734375 L 5.28125 0 L 2.4375 0 L 2.4375 -17.734375 Z M 5.28125 -17.734375" transform="translate(240.265 132.607)"/></g></g></g><g fill="#FFF"><g><g><path d="M 7.453125 -17.734375 C 9.460938 -17.734375 11.035156 -17.226562 12.171875 -16.21875 C 13.316406 -15.21875 13.890625 -13.820312 13.890625 -12.03125 C 13.890625 -11.007812 13.6875 -10.054688 13.28125 -9.171875 C 12.875 -8.285156 12.21875 -7.5625 11.3125 -7 C 10.414062 -6.4375 9.257812 -6.15625 7.84375 -6.15625 L 5.28125 -6.15625 L 5.28125 0 L 2.4375 0 L 2.4375 -17.734375 Z M 7.84375 -8.890625 C 8.625 -8.890625 9.253906 -9.054688 9.734375 -9.390625 C 10.210938 -9.722656 10.550781 -10.128906 10.75 -10.609375 C 10.957031 -11.085938 11.0625 -11.546875 11.0625 -11.984375 C 11.0625 -12.734375 10.820312 -13.421875 10.34375 -14.046875 C 9.863281 -14.679688 9.054688 -15 7.921875 -15 L 5.28125 -15 L 5.28125 -8.890625 Z M 7.84375 -8.890625" transform="translate(251.711 132.607)"/></g></g></g><g fill="#FFF"><g><g><path d="M 14.203125 -17.734375 L 14.203125 -15 L 5.28125 -15 L 5.28125 -10.28125 L 13.234375 -10.28125 L 13.234375 -7.546875 L 5.28125 -7.546875 L 5.28125 -2.734375 L 14.546875 -2.734375 L 14.546875 0 L 2.4375 0 L 2.4375 -17.734375 Z M 14.203125 -17.734375" transform="translate(270.317 132.607)"/></g></g></g><g clip-path="url(#s)"><path fill="#FFF" d="M 293.046875 114.398438 L 302.332031 124.09375 L 292.984375 133.851562 L 291.082031 131.867188 L 298.53125 124.09375 L 291.148438 116.382812 L 293.046875 114.398438"/></g></svg>